<?xml version="1.0" standalone="no"?>
<!DOCTYPE svg PUBLIC "-//W3C//DTD SVG 1.1//EN" "http://www.w3.org/Graphics/SVG/1.1/DTD/svg11.dtd" >
<svg xmlns="http://www.w3.org/2000/svg">
<metadata></metadata>
<defs>
<font id="aukphilaregular" horiz-adv-x="1173" >
<font-face units-per-em="2048" ascent="1638" descent="-410" />
<missing-glyph horiz-adv-x="614" />
<glyph horiz-adv-x="2048" />
<glyph horiz-adv-x="2048" />
<glyph unicode="&#xd;" horiz-adv-x="2048" />
<glyph unicode=" "  horiz-adv-x="614" />
<glyph unicode="&#x09;" horiz-adv-x="614" />
<glyph unicode="&#xa0;" horiz-adv-x="614" />
<glyph unicode="!" horiz-adv-x="567" d="M-2 1264q0 137 2 182l12 24h201q0 -174 -8 -348q-31 -678 -51 -735l-13 -39h-90l-14 39q-18 55 -37 606q-2 72 -2 271zM12 0v154l103 12h78v-166h-181z" />
<glyph unicode="&#x22;" horiz-adv-x="735" d="M0 1200v137v97l12 36h174q0 -199 -32 -426q-8 -63 -13 -63h-104q-14 0 -25 78q-10 80 -12 141zM373 1098q-4 186 0 372h184q0 -57 -2 -114q-10 -145 -27 -312q-6 -63 -12 -63h-117q-8 0 -12 25q-12 55 -14 92z" />
<glyph unicode="#" d="M0 393v156h186l72 360h-258v156h283l14 18q37 168 76 336q10 37 26 66h131l-69 -387h325l91 387h145l-76 -420h164v-156h-195l-81 -360h276v-156h-297l-14 -33q-37 -174 -76 -348q-10 -37 -14 -37h-142l70 385h-315l-13 -12q-37 -162 -78 -323q-12 -49 -26 -50h-129 l65 347v71h-141zM350 555h328l74 348h-326z" />
<glyph unicode="$" d="M0 324q0 78 90 77q25 0 51 -2q2 0 64 -116q14 -25 26 -39q90 -100 168 -101v541l-233 115q-61 33 -115 155q-27 63 -26 174q0 266 194 342q121 43 180 66q39 14 39 51q57 23 103 -39q2 0 116 -51q109 -47 142 -78q119 -104 119 -209q0 -49 -27 -49h-129q-4 0 -14 13 q-31 55 -52 77q-74 90 -155 90v-477q0 -2 26 -12q88 -35 129 -53q63 -27 78 -37q182 -143 182 -356q0 -96 -14 -136q-70 -195 -207 -245l-180 -62l-20 -14v-154h-103v142l-20 12q-150 37 -246 88q-166 94 -166 287zM205 1116q0 -227 194 -227v467h-26q-168 -47 -168 -240z M541 135q94 0 194 123q39 47 39 154q0 90 -39 143q-90 119 -194 90v-510z" />
<glyph unicode="%" horiz-adv-x="1859" d="M0 1102q0 139 12 201q36 155 181 194h206q33 0 78 -39q35 -31 64 -63q53 -59 53 -92v-388q0 -20 -27 -51q-47 -55 -102 -102q-63 -53 -176 -53q-213 0 -277 221q-12 49 -12 172zM154 954q0 -117 143 -116q141 0 141 116v312q0 92 -104 102q-45 4 -90 0q-90 -37 -90 -102 v-312zM315 -51l795 1536l12 12h129l-800 -1548h-136zM967 180v148v149q2 39 14 78q45 147 258 180q82 8 168 -26q168 -66 168 -244v-272q0 -125 -141 -205q-72 -39 -177 -39q-258 0 -290 231zM1135 141q0 -51 77 -65h50q115 0 145 90q14 43 14 162q0 113 -14 161 q-39 140 -129 117q-35 6 -66 -12q-78 -49 -77 -78v-375z" />
<glyph unicode="&#x26;" horiz-adv-x="1406" d="M0 387q0 211 180 361q78 51 117 77q12 10 12 27v12q-78 106 -104 168q-27 63 -27 156q0 233 260 309h232q27 0 78 -39q27 -18 77 -78q66 -74 66 -186q0 -135 -117 -252q-61 -61 -156 -117v-6q0 -12 27 -45q102 -133 207 -258q10 -14 25 -27l90 168q2 2 43 2q47 0 61 -2 q66 -6 66 -49q0 -20 -15 -53q-37 -92 -78 -182v-76q80 -82 156 -168q31 -35 27 -39l-117 -115h-6q-16 0 -33 13l-180 153q-131 -88 -195 -116q-119 -51 -260 -52q-102 0 -153 15q-283 80 -283 399zM178 403q0 -250 266 -249q100 0 136 12q61 25 104 53q66 43 66 84 q0 12 -15 31q-113 154 -233 299q-35 41 -76 76q-248 -59 -248 -306zM358 1202q0 -61 41 -131q59 -104 119 -104q86 0 152 104q41 63 41 123q0 141 -105 147q-71 6 -141 0q-106 -37 -107 -139z" />
<glyph unicode="'" horiz-adv-x="399" d="M0 1200v137v97l12 36h174q0 -115 -6 -231q-12 -231 -26 -246l-13 -12h-116q-4 0 -13 63q-10 92 -12 156z" />
<glyph unicode="(" horiz-adv-x="684" d="M0 348v148q0 489 244 860q77 115 116 129h91v-15q-80 -154 -154 -309q-35 -70 -66 -180q-53 -190 -53 -465q0 -135 2 -156q0 -43 13 -116q35 -217 104 -359q63 -135 129 -258q6 -14 25 -39q16 -23 16 -26h-133q-8 0 -51 65q-47 70 -64 103q-90 168 -143 282 q-72 158 -76 336z" />
<glyph unicode=")" horiz-adv-x="684" d="M0 -438q272 463 272 962q0 156 -2 185q-2 33 -12 104q-35 201 -92 322q-82 176 -166 350h115q12 0 116 -168q33 -55 66 -117q59 -121 102 -219q51 -119 52 -195v-489q0 -72 -39 -207q-27 -98 -52 -153q-80 -190 -206 -336q-33 -39 -39 -39h-115z" />
<glyph unicode="*" horiz-adv-x="798" d="M0 1233q0 96 57 96h6l201 -63v219h6h123v-219l201 63q2 2 12 2q53 0 53 -98q0 -16 -2 -33q-76 -29 -219 -65q47 -49 90 -103q41 -49 41 -84q0 -72 -80 -71q-20 0 -51 38q-51 70 -78 105q-20 27 -32 27q-10 0 -31 -27q-43 -61 -66 -90q-45 -57 -65 -53q-8 2 -37 26 q-41 33 -41 45q0 8 27 45q53 70 78 105q14 18 26 37l-207 65q-12 4 -12 33z" />
<glyph unicode="+" horiz-adv-x="1226" d="M0 625v182h393v393h6h174v-381h381v-194h-381v-394h-180v394h-393z" />
<glyph unicode="," horiz-adv-x="567" d="M0 0v154h154v-334q0 -18 -25 -51q-53 -68 -90 -68q-39 0 -39 43v12q41 66 51 103q2 4 2 47q0 94 -53 94z" />
<glyph unicode="-" horiz-adv-x="684" d="M0 438v142h516v-142h-516z" />
<glyph unicode="." horiz-adv-x="567" d="M0 0v154h154v-154h-154z" />
<glyph unicode="/" horiz-adv-x="567" d="M-2 -25l414 1483l14 27h141l-420 -1510h-149z" />
<glyph unicode="0" horiz-adv-x="3796" d="M0 1051h645l193 575l14 -12l192 -563h660l-426 -342q-68 -53 -68 -88q0 -20 2 -27l160 -571l-481 325q-20 14 -45 14q-27 0 -47 -14l-482 -340l172 572q4 10 5 41q0 47 -56 88zM1860 1065h659l193 573l12 -12l201 -561h665l-452 -369q-53 -43 -54 -63q0 -10 2 -15 l185 -620l-547 385l-547 -385l211 647z" />
<glyph unicode="1" horiz-adv-x="2000" d="M0 1051h645l193 575l14 -12l192 -555h660v-15l-426 -335q-68 -51 -68 -88q0 -20 2 -27l160 -571l-481 325q-20 14 -45 14q-27 0 -47 -14l-482 -340l172 572q2 8 3 38q0 43 -27 66z" />
<glyph unicode="2" horiz-adv-x="2711" d="M0 709v163q0 562 322 961h129q-94 -178 -181 -363q-12 -25 -26 -75q-66 -252 -66 -518q0 -164 2 -193q0 -43 13 -117q29 -182 90 -309q82 -170 168 -334v-14h-117q-6 0 -51 65q-59 84 -90 140q-59 109 -103 207q-86 193 -90 387zM334 1116h633l207 576q16 -12 26 -39 l189 -537h651l-414 -330l-86 -86l182 -626l-522 364h-39l-504 -362l-24 -13q-2 4 -2 7q0 12 14 20l193 594q2 0 2 6q0 27 -41 58zM1884 -90q6 14 14 27q113 178 168 268q12 25 25 53q29 66 78 193q18 49 39 143q25 123 24 141v426q0 152 -90 363q-72 170 -153 336l24 12 q68 12 156 -90q84 -154 155 -312q12 -27 39 -114q63 -223 64 -432q0 -537 -387 -987q-23 -27 -27 -27h-129z" />
<glyph unicode="3" horiz-adv-x="1652" d="M0 580v149v148q0 25 12 90q31 170 142 299q174 198 387 243h362q6 0 78 -24q35 -14 63 -27q84 -37 130 -78q82 -72 155 -153q88 -98 117 -260q14 -76 14 -207q0 -461 -350 -670q-123 -74 -246 -78q-20 -2 -162 -2q-80 0 -161 2q-295 63 -439 322q-82 150 -102 246z M166 754q0 -147 27 -226q129 -362 536 -362q375 0 537 375q20 51 24 129q2 12 2 92q0 180 -80 321q-14 29 -24 39q-74 78 -156 156q-70 63 -117 63h-321q-272 -45 -389 -321q-39 -96 -39 -266zM502 657v207q0 16 104 103q35 31 103 39q143 18 221 -115q39 -70 39 -143 q0 -233 -228 -234q-98 0 -147 41q-92 72 -92 102z" />
<glyph unicode="4" horiz-adv-x="1652" d="M0 12v1200h1329v-1200h-1329zM76 76h518v452h-518v-452zM76 657h518v478h-518v-478zM735 76h531v452h-531v-452zM735 657h531v478h-531v-478z" />
<glyph unicode="5" horiz-adv-x="1523" d="M0 12l633 1162l12 -13l567 -1149h-1212zM90 76h1034q0 20 -26 78l-453 944l-27 -39z" />
<glyph unicode="6" horiz-adv-x="2349" d="M0 12v1344h2091v-1344h-2091zM63 92l646 553q14 10 14 25q0 23 -66 78q-551 483 -567 491l-27 12v-1159zM102 51h1911l-633 529q-33 29 -63 28q-14 0 -27 -2q-76 -61 -155 -117q-39 -27 -82 -26q-39 0 -60 14q-86 61 -168 129h-51l-26 -12zM102 1317l78 -78l787 -684 q61 -53 92 -53q18 0 63 39l895 776h-1915zM1393 670q0 -18 53 -64l594 -502v1135h-12l-39 -27q-63 -41 -465 -399q-70 -61 -129 -129q-2 -6 -2 -14z" />
<glyph unicode="7" horiz-adv-x="4079" d="M0 12v1317h1006v-225h-748v-285h684v-233h-684v-348h762v-226h-1020zM1200 1104v225h1020v-225h-369v-1092h-258v1092h-393zM2466 12v1317h813q31 0 104 -51q76 -55 103 -104q53 -94 53 -181q0 -172 -143 -297l116 -78q12 -8 39 -51q39 -66 39 -180q0 -119 -39 -207 q-76 -168 -219 -168h-866zM2724 244h555l39 39v194q0 51 -39 51h-555v-284zM2724 799h426q119 0 119 155q0 33 -2 66q-43 78 -78 78h-465v-299z" />
<glyph unicode="8" horiz-adv-x="4079" d="M0 12v1305h930v-227h-672v-297h594v-232h-602v-549h-250zM1200 12v1305h698q121 0 205 -78q76 -70 117 -117q49 -55 90 -168q55 -145 55 -315q0 -68 -2 -137q-37 -104 -77 -205q-47 -115 -144 -195q-106 -90 -192 -90h-750zM1470 244h453q47 0 105 78q39 53 38 77v478 q0 23 -77 129q-57 78 -129 77h-390v-839zM2556 451v413q0 121 117 246q63 70 129 129q85 80 194 90h361q16 0 77 -26q43 -16 78 -37q51 -31 103 -92q59 -66 104 -168q14 -31 12 -39q-4 -20 -26 -25l-219 -51q-2 -2 -13 12q-35 43 -51 64q-41 47 -90 77q-86 53 -194 54 q-78 0 -129 -15q-195 -53 -195 -219v-348q0 -174 168 -246q63 -27 162 -26q219 0 290 143q25 61 39 90q6 14 52 15q55 0 155 -27q51 -14 51 -78q0 -74 -65 -143q-80 -86 -166 -168q-84 -45 -168 -64q-78 -2 -156 -2q-137 0 -155 2q-14 0 -64 13q-186 47 -311 219 q-90 127 -90 207z" />
<glyph unicode="9" horiz-adv-x="1730" d="M0 12v1317h264v-555h33l594 555h375q-186 -176 -375 -348q-45 -33 -66 -51q-41 -37 -77 -78v-6q0 -25 26 -72q45 -82 51 -90l375 -530q47 -92 90 -142h-323q-4 0 -13 13q-166 264 -360 555q-45 66 -66 65q-10 0 -26 -12q-33 -37 -51 -53q-92 -80 -187 -154v-414h-264z " />
<glyph unicode=":" horiz-adv-x="567" d="M0 0v154h154v-154h-154zM0 915v156h154v-156h-154z" />
<glyph unicode=";" horiz-adv-x="567" d="M0 0v154h154v-334q0 -18 -25 -51q-53 -68 -90 -68q-39 0 -39 43v12q41 66 51 103q2 4 2 47q0 94 -53 94zM0 915v156h154v-156h-154z" />
<glyph unicode="&#x3c;" horiz-adv-x="1226" d="M0 651v135q0 12 90 52q430 190 864 374v-153q0 -14 -90 -53q-416 -172 -620 -258q-27 -10 -51 -25q37 -23 77 -39q432 -182 645 -272q39 -16 39 -25v-162z" />
<glyph unicode="=" horiz-adv-x="1226" d="M0 426v141l180 13h774v-154h-954zM0 877v167h954v-167h-954z" />
<glyph unicode="&#x3e;" horiz-adv-x="1226" d="M0 231v168q0 4 51 27q432 180 645 270q27 12 52 27q-25 14 -52 25q-342 143 -684 284l-12 12v168l915 -405h39v-156z" />
<glyph unicode="?" d="M0 1098v35q0 199 180 301q84 45 154 63h284q16 0 78 -27q31 -12 78 -36q66 -39 117 -105q66 -88 65 -231q0 -117 -53 -207q-127 -125 -246 -258q-51 -59 -77 -144q-16 -70 -25 -102q-10 -39 -14 -39h-160q0 90 6 180q2 51 51 105l297 321q39 43 39 123q0 123 -129 226 q-51 41 -160 40q-162 0 -254 -131q-47 -66 -77 -141h-129zM373 0v154h155v-154h-155z" />
<glyph unicode="@" horiz-adv-x="2117" d="M0 297v141v142q0 43 12 104q27 139 51 207q195 520 711 606h414q14 0 102 -27q78 -23 117 -36q45 -20 102 -54q166 -94 234 -219q104 -195 104 -426q0 -338 -209 -569q-152 -166 -362 -166q-154 0 -217 129q-109 -78 -168 -104q-63 -25 -160 -25q-227 0 -319 244 q-27 72 -27 200q0 297 170 486q152 168 342 168q156 0 315 -144q8 12 15 27q33 90 39 90h161l-149 -737v-146q51 -16 102 -8q63 10 156 117q76 86 102 154q53 133 54 284q0 150 -39 246q-76 180 -219 258q-78 41 -156 78q-74 33 -180 39h-111q-117 0 -201 -15 q-86 -14 -141 -38q-475 -207 -491 -697v-155v-154q23 -106 104 -260q119 -217 375 -281q158 -41 393 -41q94 0 186 2q133 16 297 117q121 72 234 154h162q0 -29 -45 -78q-117 -123 -168 -168q-25 -20 -105 -64q-98 -55 -192 -90q-70 -27 -92 -26h-541q-20 0 -129 26 q-45 10 -92 25q-68 23 -193 90q-336 180 -348 594zM565 418q0 -92 15 -135q43 -129 200 -129q102 0 150 39q219 186 219 464q0 312 -285 285q-164 -41 -246 -246q-53 -131 -53 -278z" />
<glyph unicode="A" horiz-adv-x="1406" d="M0 0l516 1407q19 53 39 63h211l582 -1470h-199l-14 12q-70 195 -142 387q-10 27 -12 27h-621l-12 -14q-70 -186 -143 -375q-14 -37 -25 -37h-180zM426 645h477l-246 672z" />
<glyph unicode="B" horiz-adv-x="1548" d="M0 0v1470h762q133 0 219 -141q66 -109 66 -219q0 -156 -156 -324v-12q207 -111 207 -348q0 -168 -92 -297q-90 -129 -193 -129h-813zM193 180h555q37 0 104 90q51 70 51 154q0 53 -12 92q-16 43 -39 78q-35 51 -66 51h-593v-465zM193 877h542q25 0 90 77q27 31 27 117 q0 63 -27 129q-37 90 -102 90h-530v-413z" />
<glyph unicode="C" horiz-adv-x="1574" d="M0 618v130v129q2 80 25 155q116 389 503 465h324q68 0 192 -90q90 -66 168 -168q53 -70 54 -131q0 -51 -105 -51q-33 0 -63 2q-16 10 -27 24q-41 63 -65 91q-47 57 -76 77q-92 66 -266 66q-127 0 -187 -27q-201 -88 -246 -246q-38 -136 -38 -306v-9q0 -158 26 -252 q92 -323 445 -323h2q274 0 417 245q25 53 39 78q8 14 45 15q137 0 138 -72q0 -88 -78 -189q-59 -76 -92 -102q-133 -119 -258 -141q-70 -14 -193 -15q-102 0 -117 2q-35 2 -78 13q-315 82 -426 360q-59 150 -63 270z" />
<glyph unicode="D" horiz-adv-x="1562" d="M0 0v1470h774q96 0 180 -75q74 -68 105 -105q47 -57 90 -155q65 -145 65 -353v-6q0 -135 -2 -158q0 -37 -12 -102q-37 -211 -141 -323q-82 -88 -129 -130q-76 -63 -144 -63h-786zM193 180h542q29 0 78 39q137 109 180 258q25 84 27 141v150v147q-4 127 -90 220 q-74 80 -117 116q-47 39 -90 39h-530v-1110z" />
<glyph unicode="E" horiz-adv-x="1368" d="M0 0v1470h1044v-174h-851v-438h800v-180h-800v-498h890v-180h-1083z" />
<glyph unicode="F" horiz-adv-x="1445" d="M0 633v37q25 -2 51 -52q20 -53 39 -77q57 -78 148 -78q49 0 84 14q240 96 477 193l131 26q17 2 33 2q131 0 198 -170q14 -35 15 -102q0 -27 -2 -53q-23 16 -39 39q-33 70 -52 104q-29 51 -51 51h-180q-186 -80 -375 -155q-133 -51 -219 -52q-258 0 -258 273zM31 985 q33 0 71 -94q14 -37 27 -53q45 -63 121 -64q47 0 149 39q242 96 363 141q39 16 141 39q26 2 51 2q260 0 260 -266q0 -23 -2 -45q-14 0 -63 90q-14 25 -27 39q-68 78 -147 78q-35 0 -72 -14l-516 -193q-37 -14 -98 -14q-162 0 -226 143q-32 72 -32 166v6z" />
<glyph unicode="G" horiz-adv-x="1845" d="M0 774q0 190 37 297q151 404 530 453h297q10 0 51 -15q84 -25 117 -39q94 -37 156 -90q111 -96 168 -192q104 -180 104 -420q0 -188 -53 -317q-184 -440 -690 -441q-158 0 -252 27q-340 98 -440 465q-25 100 -25 272zM152 764q0 -51 2 -68l12 -12l620 672h-180 q-53 -6 -180 -78q-274 -158 -274 -514zM205 528q0 -59 53 -116q74 -80 154 -154q57 -53 116 -53q29 0 39 14l645 840q2 0 2 10q0 23 -14 41q-82 86 -168 168q-42 41 -85 41l-17 -2l-27 -14l-672 -697q-27 -29 -26 -78zM668 180h223q59 0 129 64q92 86 141 143 q131 147 131 406q0 55 -2 110q-4 32 -15 32q-4 0 -9 -5l-78 -78l-504 -633q-16 -20 -16 -39z" />
<glyph unicode="H" horiz-adv-x="1523" d="M0 0v1470h186v-593h775v593h188v-1470h-188v657h-775v-657h-186z" />
<glyph unicode="I" horiz-adv-x="567" d="M0 0v1470h154v-1470h-154z" />
<glyph unicode="J" horiz-adv-x="1058" d="M0 315v72q12 14 94 14q39 0 47 -2l13 -12q37 -137 51 -156q67 -79 191 -79h3q82 0 142 41q59 39 59 65v1212h6h156v-1304q0 -43 -92 -115q-27 -23 -64 -39q-88 -39 -239 -39q-367 0 -367 342z" />
<glyph unicode="K" horiz-adv-x="1406" d="M0 0v1470h186v-671l717 671h258l-604 -604l655 -866h-241l-506 670q-33 41 -53 41q-10 0 -13 -2l-213 -207v-502h-186z" />
<glyph unicode="L" d="M0 0v1470h186v-1296h717v-174h-903z" />
<glyph unicode="M" horiz-adv-x="1742" d="M0 524v17l63 182q2 6 3 25q0 55 -66 182v41q57 0 90 -29q59 -55 115 -117h78h77q201 4 402 13v53l-234 579v15h142l413 -608q12 -16 52 -25q88 -8 131 -14q98 -12 168 -52q39 -23 39 -36q0 -31 -117 -80q-20 -8 -53 -13q-86 -6 -129 -12q-84 -12 -130 -78l-378 -555h-140 q0 14 15 51q109 272 221 543v51h-569q-84 -133 -193 -133z" />
<glyph unicode="N" horiz-adv-x="1523" d="M0 0v1470h193l749 -1110h19v1110h188v-1470h-203l-760 1112v-1112h-186z" />
<glyph unicode="O" horiz-adv-x="1626" d="M0 768v162q18 276 283 465q92 65 233 102h336q23 0 115 -39q80 -33 143 -78q111 -80 168 -180q98 -176 102 -336q2 -25 2 -157q0 -125 -2 -140q-4 -82 -39 -155q-203 -438 -671 -439q-150 0 -244 27q-311 88 -389 399q-37 160 -37 369zM193 541q0 -254 284 -361 q69 -26 184 -26h9q305 0 452 258q66 115 66 276v125q-14 387 -363 490q-54 16 -160 16q-39 0 -85 -2q-117 -20 -181 -78q-78 -72 -116 -117q-90 -104 -90 -219v-362z" />
<glyph unicode="P" horiz-adv-x="1406" d="M0 0v1470h799q125 0 221 -153q78 -127 78 -266q0 -252 -195 -406q-74 -59 -90 -59h-627v-586h-186zM193 768q219 0 440 6q270 6 270 258q0 68 -26 129q-55 129 -129 129h-555v-522z" />
<glyph unicode="Q" horiz-adv-x="1626" d="M0 735q0 176 37 336q88 344 465 426h297q162 0 311 -129q152 -131 207 -285q51 -147 51 -321q0 -123 -12 -207q-16 -90 -39 -143q-55 -117 -117 -232q-2 -10 -2 -20q0 -27 41 -58l156 -102q6 -4 12 -12q-39 -104 -72 -105q-25 0 -96 41q-86 51 -129 76q-47 27 -72 27 q-14 0 -18 -2q-129 -43 -195 -50q-23 -4 -147 -4q-76 0 -150 4q-109 20 -194 62q-236 119 -297 362q-37 160 -37 336zM193 735q0 -164 26 -258q74 -258 309 -311q63 -12 181 -12h104q29 10 39 26q-10 16 -156 90q18 106 86 107q25 0 31 -4l193 -90h6q37 0 71 65 q92 168 93 402q0 137 -27 231q-72 250 -363 322q-62 16 -151 16q-32 0 -68 -2q-276 -59 -348 -311q-25 -82 -26 -142v-129z" />
<glyph unicode="R" horiz-adv-x="1523" d="M0 0v1470h903q121 0 207 -153q66 -119 66 -246q0 -254 -246 -362q-66 -27 -131 -52v-12l182 -194l297 -451h-223l-359 516q-10 16 -51 51q-59 51 -78 51h-381v-618h-186zM193 838h569q219 0 219 239q0 55 -14 97q-37 116 -127 116h-2h-645v-452z" />
<glyph unicode="S" horiz-adv-x="1394" d="M-4 451h274q33 -61 78 -117q72 -90 103 -90h335q31 0 91 53q65 54 65 107q0 51 -65 98q-35 29 -129 53q-82 20 -168 39q-59 6 -91 12q-23 4 -51 12q-88 27 -116 39q-246 102 -246 330q0 199 182 303q76 43 180 66h336q33 0 90 -27q51 -23 103 -51q66 -35 155 -143 q43 -49 43 -168h-288q-91 157 -294 157h-3q-92 0 -142 -14q-78 -23 -78 -96q0 -76 78 -111q80 -35 90 -39q70 -20 156 -39q104 -16 154 -26q33 -6 104 -25q195 -53 285 -272v-90q0 -289 -285 -375q-82 -25 -129 -25q-23 -2 -188 -2q-92 0 -187 2q-203 35 -362 219 q-80 96 -80 220z" />
<glyph unicode="T" horiz-adv-x="3964" d="M0 414v37l12 14h232q4 0 14 -14q49 -70 76 -103q12 -14 26 -26q98 -78 258 -78q117 0 156 14q129 47 129 148q0 113 -141 149q-170 35 -336 78q-59 14 -117 37q-246 102 -246 344q0 240 220 327q75 31 143 39h322q121 0 219 -90q160 -145 159 -297h-262 q-141 156 -315 156q-82 0 -150 -27q-66 -25 -65 -39v-102q0 -25 65 -51q45 -20 66 -27q76 -27 129 -39q156 -33 231 -51q41 -10 78 -27q285 -121 285 -372q0 -160 -66 -234q-150 -168 -309 -168h-414q-33 0 -90 25q-43 20 -78 39q-231 135 -231 338zM1393 410q0 55 14 55 h258q33 -176 219 -221h111h108q35 2 66 14q141 51 141 162q0 86 -102 121q-213 51 -426 104q-14 2 -39 12q-285 106 -285 357q0 227 207 315q94 41 168 51h324q82 0 167 -51q53 -33 130 -117q65 -71 65 -179q0 -40 -14 -40h-246q-100 156 -297 156q-92 0 -129 -14 q-92 -33 -92 -105q0 -98 157 -139q268 -68 400 -105q39 -10 78 -24q207 -84 207 -348q0 -311 -273 -377q-100 -23 -141 -25q-23 -2 -174 -2q-88 0 -174 2q-213 59 -336 207q-92 109 -92 191zM2775 1128v228l686 12h438v-240h-419v-1091h-285v1091h-420z" />
<glyph unicode="U" horiz-adv-x="1523" d="M0 297v1173h186v-1122q0 -10 58 -78q57 -68 116 -90q66 -26 203 -26h10q186 0 279 65q109 78 109 141v1110h188v-1097q0 -203 -182 -310q-147 -84 -258 -88q-18 -2 -148 -2q-131 0 -149 2q-29 0 -78 13q-115 27 -205 102q-129 104 -129 207z" />
<glyph unicode="V" horiz-adv-x="1406" d="M0 1446v24h186l447 -1239q8 -29 24 -38l488 1277h203l-562 -1433q-14 -37 -24 -37h-215z" />
<glyph unicode="W" horiz-adv-x="1974" d="M0 1434v36h180l297 -1251l12 12l353 1239h241q16 0 27 -36l297 -1176l16 -16l293 1228h197l-381 -1470h-236l-342 1290l-368 -1290h-209z" />
<glyph unicode="X" horiz-adv-x="1406" d="M0 0l528 735q2 2 2 23q0 33 -14 55l-426 633l-14 24h221l373 -516h6q12 0 33 27l372 489h222l-504 -696l530 -774h-223l-383 528q-31 41 -53 41q-20 0 -52 -41l-393 -528h-225z" />
<glyph unicode="Y" horiz-adv-x="1406" d="M0 1470h211l446 -677l453 677h219l-575 -837v-633h-193v618l-549 828z" />
<glyph unicode="Z" horiz-adv-x="1290" d="M0 0v193l852 1103h-762v174h1032v-167l-878 -1110v-19h917v-174h-1161z" />
<glyph unicode="[" horiz-adv-x="567" d="M0 -412v1882h348v-147h-168v-1599h168v-136h-348z" />
<glyph unicode="\" horiz-adv-x="567" d="M0 1434v51h137l428 -1510h-153z" />
<glyph unicode="]" horiz-adv-x="567" d="M0 -289h166v1612h-166v147h348v-1882h-348v123z" />
<glyph unicode="^" horiz-adv-x="1019" d="M-4 696l352 789h154l362 -789h-180q-6 0 -39 78q-129 311 -194 465q-10 27 -25 51q-16 -25 -27 -51q-119 -295 -180 -440q-45 -102 -53 -103h-170z" />
<glyph unicode="_" d="M0 -322h1188v-90h-1188v90z" />
<glyph unicode="`" horiz-adv-x="684" d="M0 1470h225l123 -243h-143q-10 0 -64 63q-73 88 -141 180z" />
<glyph unicode="a" d="M0 266q0 272 231 314l439 77q25 4 39 27q2 31 2 64q0 194 -226 194h-2q-150 0 -264 -129q-59 -66 -69 -65q-92 0 -125 26v45q0 123 129 201q89 53 206 78h310q70 0 155 -78q47 -43 90 -105q10 -12 21 -24v-789q47 -84 47 -116q-41 0 -80 2q-94 6 -104 12q-47 31 -51 90 h-13q-111 -59 -194 -90q-72 -27 -201 -27q-98 0 -147 15q-193 53 -193 278zM178 272q0 -113 92 -143q41 -14 129 -14q80 0 129 14q176 49 195 219q8 84 8 168h-22l-426 -90q-104 -23 -105 -154z" />
<glyph unicode="b" d="M0 0v1470h174v-477q176 104 309 105q283 0 394 -299q41 -104 41 -264q0 -176 -41 -265q-135 -297 -408 -297q-113 0 -250 78q-20 10 -26 12q-18 -2 -19 -2v-61h-174zM180 348q0 -117 117 -194q41 -27 143 -27q221 0 269 195q26 100 26 211v8q0 135 -26 194 q-92 209 -266 209q-15 0 -31 -2q-231 -53 -232 -272v-322z" />
<glyph unicode="c" horiz-adv-x="1058" d="M0 322v401q0 20 12 51q14 37 51 103q27 49 117 129q64 57 193 92q31 1 60 1q126 0 212 -28q246 -82 246 -291q0 -45 -129 -45h-27q-92 207 -270 207q-78 0 -143 -27q-141 -55 -142 -192v-363q0 -156 168 -219q37 -14 117 -14q193 0 297 233h141q27 0 27 -36 q0 -223 -221 -312q-98 -39 -244 -39q-152 0 -272 64q-193 106 -193 285z" />
<glyph unicode="d" d="M0 348v361q0 94 90 221q37 51 103 102q84 66 245 66q102 0 219 -66q66 -37 84 -37v475h7h155v-1470h-162v90q-113 -70 -161 -90q-61 -27 -162 -27q-205 0 -328 168q-90 123 -90 207zM180 348q0 -150 154 -207q39 -14 125 -14q211 0 264 260v135q0 143 -14 201 q-55 221 -268 221q-20 0 -42 -2q-219 -53 -219 -258v-336z" />
<glyph unicode="e" d="M0 373v143v141q2 72 37 156q106 248 350 285q46 2 85 2q113 0 173 -17q279 -76 336 -387q16 -92 16 -213h-813q-6 -34 -6 -69q0 -21 2 -41q12 -154 207 -232q35 -14 123 -14q90 0 160 39q47 29 155 131h129q27 0 27 -33q0 -55 -39 -98q-70 -72 -143 -141 q-74 -45 -181 -50q-14 -2 -116 -2q-137 0 -244 39q-250 92 -258 361zM176 645h639q0 213 -197 285q-42 14 -122 14q-32 0 -70 -2q-250 -55 -250 -297z" />
<glyph unicode="f" horiz-adv-x="567" d="M0 936v141h115l39 291q12 94 143 129h283v-154l-207 -26q-39 -6 -39 -27v-213h168v-141h-174v-936h-207v936h-121z" />
<glyph unicode="g" d="M0 426v123v121q2 59 25 129q78 236 309 299q23 2 47 2q115 0 237 -56q68 -37 105 -51l18 4v74l162 12v-1237q0 -59 -51 -116q-55 -61 -117 -117q-57 -51 -102 -51h-402q-29 0 -77 39q-123 96 -129 168q-4 55 -5 108q49 0 95 -6q41 -2 65 -25q49 -53 78 -77q8 -8 39 -27 q45 -27 147 -27q90 0 123 15q135 57 142 168q-4 82 -4 163q-8 0 -99 -36q-16 -6 -39 -13q-49 -12 -129 -12q-287 0 -387 231q-49 113 -51 195zM178 541q0 -135 2 -154q8 -233 271 -233q272 0 272 258v272q0 63 -78 154q-91 106 -213 106q-16 0 -33 -2q-199 -49 -219 -246 q-2 -78 -2 -155z" />
<glyph unicode="h" d="M0 0v1470h174v-477q66 35 135 66q92 39 193 39q115 0 207 -54q143 -80 143 -180v-864h-174v825q0 31 -84 78q-70 39 -137 39q-129 0 -252 -129q-31 -35 -31 -39v-774h-174z" />
<glyph unicode="i" horiz-adv-x="464" d="M0 0v1071h141v-1071h-141zM0 1317v153h141v-153h-141z" />
<glyph unicode="j" horiz-adv-x="450" d="M-4 -438q0 66 4 129q2 33 12 33h154q47 0 47 57v1290h6h141v-1405q0 -27 -51 -65q-51 -39 -65 -39h-248zM219 1317v153h141v-153h-141z" />
<glyph unicode="k" horiz-adv-x="1058" d="M0 0v1470h174v-774l420 375h231l-387 -401v-4q0 -12 13 -33l413 -633h-215l-364 530l-111 -104v-426h-174z" />
<glyph unicode="l" horiz-adv-x="464" d="M0 0v1470h141v-1470h-141z" />
<glyph unicode="m" horiz-adv-x="1742" d="M0 0v1071h174v-104q131 98 213 131q21 1 42 1q236 0 345 -169h12q158 168 336 168q92 0 156 -27q156 -68 156 -168v-903h-177v799q0 20 -83 92q-31 27 -103 27q-143 0 -233 -132q-31 -47 -31 -51v-735h-182v799q0 76 -97 104q-47 14 -96 15q-92 0 -162 -54 q-96 -72 -96 -102v-762h-174z" />
<glyph unicode="n" d="M0 0v1071h174v-104q51 43 109 77q63 42 116 54q48 2 96.5 2t98.5 -2q70 -4 154 -78q104 -90 104 -168v-852h-174v799q0 31 -84 78q-70 41 -143 41q-123 0 -246 -132q-31 -35 -31 -38v-748h-174z" />
<glyph unicode="o" d="M0 309v426q0 63 76 168q47 61 129 129q49 39 168 66q46 2 85 2q114 0 175 -17q231 -63 309 -270q39 -104 39 -264q0 -156 -27 -252q-88 -324 -452 -324q-264 0 -412 168q-90 102 -90 168zM180 334q0 -92 129 -168q70 -39 174 -39q88 0 123 14q51 20 78 39q90 63 90 129 v439q0 70 -104 129q-112 66 -216 66q-14 0 -28 -1q-45 -6 -129 -51q-117 -66 -117 -168v-389z" />
<glyph unicode="p" d="M0 -412v1483h174v-90q72 49 148 90q30 17 65 27q28 2 54 2q352 0 450 -338q27 -94 27 -219q0 -166 -54 -299q-109 -270 -413 -271q-109 0 -142 15q-111 45 -135 45v-445h-174zM178 537q0 -143 15 -203q51 -207 258 -207q195 0 258 195q26 77 26 209v10q0 102 -12 182 q-39 233 -265 233q-22 0 -46 -2q-162 -39 -207 -180q-27 -88 -27 -237z" />
<glyph unicode="q" d="M-2 522q0 129 2 148q2 49 25 116q85 257 323 312q24 1 46 1q98 0 161 -28q94 -43 186 -90v90l162 27v-1510h-162v475q-160 -90 -290 -90q-252 0 -375 207q-55 96 -76 193q-2 76 -2 149zM178 549q0 -121 2 -137q10 -285 271 -285q104 0 155 39q23 18 64 65q39 43 39 52 v479q0 18 -39 63q-114 131 -232 131q-13 0 -26 -2q-182 -45 -232 -270q-2 -68 -2 -135z" />
<glyph unicode="r" horiz-adv-x="684" d="M0 0v1071h147v-90q120 97 175 117q22 2 45 2l45 -2q90 -8 116 -54q2 -25 2 -51q0 -90 -51 -90h-28q-43 10 -64 12q-6 2 -27 3q-74 0 -129 -66q-57 -70 -57 -117v-735h-174z" />
<glyph unicode="s" horiz-adv-x="1058" d="M0 238v45q15 26 90 26h6h58q45 -59 90 -116q16 -18 26 -27q59 -39 181 -39q80 0 90 2q131 6 131 154q0 27 -2 51q-33 43 -64 53l-426 141q-156 51 -155 258q0 253 272 312h258q68 0 141 -66q119 -102 119 -194q0 -18 -2 -39q-29 -25 -149 -25h-7q-106 168 -258 168 q-194 0 -194 -134q0 -81 53 -99l504 -168q68 -23 102 -129q14 -39 15 -103q0 -260 -299 -334q-63 -2 -129 -2q-135 0 -207 15q-244 47 -244 250z" />
<glyph unicode="t" horiz-adv-x="567" d="M0 936v141h96v264q0 4 148 93q12 6 26 12h33v-369h148v-141h-142v-756q0 -20 64 -39q35 -8 53 -12q51 -16 51 -27v-127h-207q-41 0 -90 37q-84 66 -84 103v821h-96z" />
<glyph unicode="u" d="M0 166v905h174v-840q0 -6 70 -65q31 -25 65 -37q39 -2 78 -2q162 0 270 156q10 14 21 26v762h174v-1071h-174v102q-193 -129 -356 -129q-111 0 -207 52q-115 66 -115 141z" />
<glyph unicode="v" horiz-adv-x="1071" d="M0 1044v27h174l307 -850l316 850h184l-401 -1071h-193z" />
<glyph unicode="w" horiz-adv-x="1484" d="M0 1020v51h160l239 -813l13 12l233 801h168q2 0 12 -39q104 -387 207 -774l12 25l234 788h168v-65l-311 -1006h-199l-217 811l-223 -811h-193z" />
<glyph unicode="x" horiz-adv-x="1044" d="M0 0l334 502q14 23 14 47q0 23 -14 45l-309 465v12h196l244 -336q0 -2 4 -2q18 0 59 53q129 174 195 258q18 27 25 27h194l-324 -491q-12 -20 -12 -33v-6l375 -541h-207q-27 0 -104 102q-92 123 -168 258l-21 21l-276 -381h-205z" />
<glyph unicode="y" horiz-adv-x="1058" d="M0 1044v27h166l285 -827h14l287 827h190l-440 -1237q-96 -272 -336 -272h-90q-43 33 -43 162h186q4 0 51 57q14 18 27 39q53 100 53 157q0 37 -2 48z" />
<glyph unicode="z" horiz-adv-x="1058" d="M0 0v141l633 807h-582v123h844q0 -92 -31 -129l-633 -788v-19h660v-135h-891z" />
<glyph unicode="{" horiz-adv-x="684" d="M0 451v155q74 39 154 129q45 51 45 90v570q0 12 59 51q58 37 115 51h182v-117q0 -4 -117 -51q-61 -25 -65 -63l-39 -531q-2 -35 -64 -102q-43 -49 -90 -92v-13q66 -70 129 -141q37 -43 39 -78l39 -553q2 -43 90 -53q39 -4 78 -4v-154q-72 0 -143 4q-31 2 -64 13 q-133 45 -143 168l-39 553q-2 45 -90 116q-35 29 -76 52z" />
<glyph unicode="|" horiz-adv-x="516" d="M0 -438v1923h115v-1923h-115z" />
<glyph unicode="}" horiz-adv-x="684" d="M0 -322q57 18 115 39q84 31 84 90v527q0 8 59 78q49 59 102 116v13q-61 57 -116 116q-47 53 -51 105l-39 528q-2 27 -64 51q-90 37 -90 39v117h180q37 0 103 -78q49 -57 51 -90l39 -543q10 -119 168 -168v-167q0 -4 -13 -13q-53 -33 -77 -51q-74 -57 -78 -117l-39 -567 q-4 -86 -141 -141q-66 -27 -193 -27v143z" />
<glyph unicode="~" horiz-adv-x="1226" d="M0 567v207q0 10 25 25q59 35 129 65q24 11 51 13q109 8 182 -13q174 -49 348 -102q12 -2 27 -2q59 0 90 14q86 39 168 90v-180q0 -18 -53 -51q-33 -25 -103 -53q-33 -14 -123 -15q-76 0 -123 15q-162 63 -245 77q-16 4 -103 5q-51 0 -104 -5q-68 -16 -166 -90z" />
<glyph horiz-adv-x="1574" d="M0 0v1303h1006v-1303h-1006zM51 51h903v1200h-903v-1200z" />
<glyph horiz-adv-x="929" d="M0 0v1044h813v-1044h-813zM12 12h787v1020h-787v-1020z" />
<glyph horiz-adv-x="1574" d="M0 0v1303h1006v-1303h-1006zM51 51h903v1200h-903v-1200z" />
<glyph horiz-adv-x="1574" d="M0 0v1303h1006v-1303h-1006zM51 51h903v1200h-903v-1200z" />
<glyph horiz-adv-x="1574" d="M0 0v1303h1006v-1303h-1006zM51 51h903v1200h-903v-1200z" />
<glyph horiz-adv-x="1574" d="M0 0v1303h1006v-1303h-1006zM51 51h903v1200h-903v-1200z" />
<glyph horiz-adv-x="1574" d="M0 0v1303h1006v-1303h-1006zM51 51h903v1200h-903v-1200z" />
<glyph horiz-adv-x="1574" d="M0 0v1303h1006v-1303h-1006zM51 51h903v1200h-903v-1200z" />
<glyph horiz-adv-x="1574" d="M0 0v1303h1006v-1303h-1006zM51 51h903v1200h-903v-1200z" />
<glyph unicode="&#xa1;" horiz-adv-x="669" d="M-4 -412q0 162 4 322q23 649 37 723l14 63h103q63 -549 63 -1108h-221zM25 915v156h180v-156h-180z" />
<glyph unicode="&#xa2;" d="M0 567v142q18 92 63 168q84 145 181 182q117 43 311 51q8 12 12 25q68 209 103 311q6 14 14 24h64l14 -36l-92 -351q-2 -8 14 -24q88 -86 129 -129q68 -74 78 -168l-168 -27q-55 121 -105 156l-12 -27l-207 -723v-6q0 -12 13 -20h59q106 0 186 90q27 31 78 143h142 q27 0 26 -33q0 -84 -39 -122l-180 -181q-23 -20 -104 -37q-115 -25 -232 -38l-14 -13q-49 -156 -103 -311q-4 -12 -12 -25q-16 -2 -33 -2q-47 0 -47 41q0 20 2 25l78 297v39q-219 264 -219 579zM178 522q0 -74 2 -149q10 -55 39 -129q25 -66 57 -66q16 0 21 15l213 761h-84 q-188 -41 -233 -219q-12 -49 -13 -65q-2 -16 -2 -148z" />
<glyph unicode="&#xa3;" d="M0 109v32l180 193q25 29 25 65v265h-180v155h114q6 0 2 45q-14 121 -14 189q0 125 14 174q59 211 297 270h258q41 0 156 -78q104 -72 129 -192q14 -78 12 -78l-26 -14h-142q-4 0 -12 14q-41 70 -65 102q-12 16 -39 39q-63 53 -170 53q-231 0 -232 -258q0 -70 2 -79 q14 -131 39 -168l12 -19h297v-155h-245q-25 -180 -115 -406q-10 -25 -10 -86q113 16 229 8q94 -23 141 -26h86q104 0 148 12q80 29 84 29q39 0 57 -66q14 -49 15 -68q0 -45 -105 -73q-51 -14 -149 -15q-74 0 -84 2q-154 39 -232 50q-10 2 -88 2q-123 0 -184 -15 q-94 -25 -142 -37h-6q-25 0 -45 50q-12 37 -12 84z" />
<glyph unicode="&#xa4;" d="M-4 1090l94 122q41 -23 141 -114q10 -2 19 -2q12 0 84 26q72 27 143 27q57 0 129 -27t84 -26q25 0 58 26q47 37 90 78h26l111 -96l-137 -137v-11q0 -4 26 -79q39 -109 39 -154q0 -35 -12 -78q-31 -78 -39 -117q-2 -8 -2 -28t2 -23l102 -117l-108 -108l-137 108 q-2 2 -11 2q-12 0 -14 -2q-61 -27 -90 -38q-41 -14 -139 -15q-63 0 -68 2q-78 39 -117 51q-6 2 -22 2q-14 0 -17 -2l-129 -116q-12 -10 -77 65q-25 31 -25 53v11l115 129q-51 127 -52 221q0 82 27 154t27 71q0 6 -2 6zM244 729q0 -240 233 -240t234 228q0 66 -54 147 q-74 119 -219 103q-195 -12 -194 -238z" />
<glyph unicode="&#xa5;" d="M0 1470h166q10 0 39 -51q170 -295 336 -594h14l354 645h213l-370 -716h319v-154h-414v-156h414v-141h-420v-303h-180v303h-408v141h375v156h-375v154h297z" />
<glyph unicode="&#xa6;" horiz-adv-x="516" d="M0 322l115 12v-772h-115v760zM0 709v776h115v-776h-115z" />
<glyph unicode="&#xa7;" d="M0 633q0 190 193 297q2 2 2 6q0 2 -41 57q-33 45 -52 90q-14 35 -14 115q0 244 246 299q123 6 246 0q57 -2 143 -51q141 -82 141 -248q0 -37 -26 -37h-154q-6 0 -39 78q-10 20 -12 27q-63 78 -182 77q-182 0 -183 -149q0 -82 66 -135q55 -45 104 -78q225 -147 336 -219 q182 -123 182 -297q0 -178 -194 -299v-12q129 -156 129 -283q0 -115 -129 -231q-72 -66 -117 -66h-297q-90 0 -182 78q-117 102 -117 213q0 61 111 61q31 0 59 -2q59 -100 103 -143q53 -51 180 -51q197 0 196 149q0 92 -80 146l-528 374q-90 66 -90 234zM178 664 q0 -109 92 -187q154 -98 310 -194q45 -27 71 -27q10 0 19 2q104 80 104 160q0 125 -117 200l-335 220h-64q-80 -66 -80 -174z" />
<glyph unicode="&#xa8;" horiz-adv-x="684" d="M0 1317v153h154v-153h-154zM373 1317v153h155v-153h-155z" />
<glyph unicode="&#xa9;" horiz-adv-x="1548" d="M0 729q0 184 37 291q149 395 569 477q231 16 387 -27q283 -74 426 -321q86 -147 90 -272q2 -16 2 -136q0 -219 -65 -368q-172 -383 -569 -398q-20 -2 -138 -2q-492 0 -676 414q-63 147 -63 342zM139 748q0 -164 54 -297q98 -248 374 -322q51 -14 187 -14q401 0 575 374 q41 88 41 252q0 186 -80 330q-35 61 -141 156q-49 41 -156 90q-86 39 -116 39h-259q-301 -47 -425 -336q-53 -125 -54 -272zM360 696q0 119 13 181q49 216 297 284q272 16 428 -168q12 -31 12 -45q0 -12 -12 -18q-31 -4 -60 -4q-57 0 -96 28q-129 92 -201 93 q-160 0 -225 -183q-14 -39 -14 -141q0 -86 14 -143q45 -182 223 -183q135 0 267 158h92q27 0 26 -39q0 -84 -104 -156q-45 -31 -129 -63q-35 -14 -137 -14q-305 0 -381 258q-12 49 -13 155z" />
<glyph unicode="&#xaa;" horiz-adv-x="774" d="M0 954q0 174 180 220q147 33 219 53q14 2 27 12q2 18 2 39q0 92 -119 92q-68 0 -90 -14q-57 -51 -90 -66q-6 -2 -37 -2q-70 0 -69 47q0 117 170 162h272q18 0 51 -27q84 -63 84 -90v-567q25 -23 33 -65h-131q-35 53 -62 53q-12 0 -14 -2q-53 -18 -78 -25 q-100 -27 -141 -26q-207 0 -207 206zM152 958q0 -82 98 -81q188 0 188 221h-39q-72 -12 -141 -27q-106 -23 -106 -113z" />
<glyph unicode="&#xab;" d="M-2 532l324 461h143q-106 -180 -207 -360q-29 -51 -53 -105q117 -262 260 -452h-148zM383 532l287 410q10 12 65 51h117q-18 -39 -39 -78q-106 -180 -156 -270q-51 -94 -51 -110q0 -23 12 -46l240 -413h-156z" />
<glyph unicode="&#xac;" horiz-adv-x="1226" d="M0 846v174h954v-594h-174v420h-780z" />
<glyph unicode="&#xad;" horiz-adv-x="684" d="M0 438v142h516v-142h-516z" />
<glyph unicode="&#xae;" horiz-adv-x="1548" d="M0 729q0 184 37 291q149 395 569 477q231 16 387 -27q283 -74 426 -321q86 -147 90 -272q2 -16 2 -136q0 -219 -65 -368q-172 -383 -569 -398q-20 -2 -138 -2q-492 0 -676 414q-63 147 -63 342zM139 748q0 -164 54 -297q98 -248 374 -322q51 -14 187 -14q401 0 575 374 q41 88 41 252q0 186 -80 330q-35 61 -141 156q-49 41 -156 90q-86 39 -116 39h-259q-301 -47 -425 -336q-53 -125 -54 -272zM426 309v826h465q115 0 153 -115q14 -41 15 -105q0 -121 -66 -167q-78 -51 -116 -78q-6 -4 -13 -13q43 -41 78 -90q88 -127 168 -258h-156 q-78 133 -168 258q-47 66 -63 66h-162v-324h-135zM567 782q117 0 232 4q119 6 119 117q0 117 -66 117h-285v-238z" />
<glyph unicode="&#xaf;" horiz-adv-x="1161" d="M0 1599v93h1188v-93h-1188z" />
<glyph unicode="&#xb0;" horiz-adv-x="825" d="M0 1214q0 238 180 283q90 6 180 0q121 -6 156 -141q12 -53 12 -123q0 -106 -39 -174q-43 -78 -77 -78h-297q-49 0 -90 90q-25 61 -25 143zM115 1161q6 -63 39 -63h219l26 24v219q0 31 -65 39q-63 10 -129 0q-90 -20 -90 -161v-58z" />
<glyph unicode="&#xb1;" horiz-adv-x="1161" d="M0 0v141h942v-141h-942zM0 651v180h393v396h6h174v-396h369v-180h-369v-393h-180v393h-393z" />
<glyph unicode="&#xb2;" horiz-adv-x="684" d="M-2 748q0 72 39 116q66 70 143 142q45 33 64 53q94 88 182 180v45q0 98 -109 98q-66 0 -86 -14q-47 -53 -77 -65h-45q-84 0 -84 24q0 51 65 107q58 49 115 63h272q25 0 129 -117q14 -25 15 -71q0 -90 -54 -148q-59 -66 -116 -117q-104 -86 -154 -129q-20 -16 -21 -51h342 v-116h-620z" />
<glyph unicode="&#xb3;" horiz-adv-x="684" d="M0 905q0 49 90 49h12q104 -104 181 -104q131 0 131 137q0 70 -54 96q-70 14 -102 27q-14 4 -14 31q0 41 53 71q43 27 90 54v37q0 80 -78 79q-61 0 -116 -41q-31 -33 -52 -38q-8 -2 -51 -3q-27 0 -53 3q-14 4 -14 40q-1 103 157 154h285q104 0 104 -145q0 -80 -92 -178 q-2 -2 -2 -7q0 -4 2 -6q27 -16 39 -26q78 -68 78 -76v-195q0 -39 -78 -78q-14 -6 -65 -24q-70 -27 -154 -27q-111 0 -168 27q-129 57 -129 143z" />
<glyph unicode="&#xb4;" horiz-adv-x="684" d="M0 1188q0 168 129 270h205q-8 -35 -115 -155q-102 -115 -219 -115z" />
<glyph unicode="&#xb5;" horiz-adv-x="1212" d="M0 -412v1483h174v-801q0 -16 45 -51q55 -45 78 -53q41 -12 129 -12q100 0 192 65q59 41 60 90v762h174v-1071h-174v76q-55 -33 -111 -64q-74 -39 -135 -39q-92 0 -239 78h-19v-463h-174z" />
<glyph unicode="&#xb6;" horiz-adv-x="1134" d="M0 1057q0 347 309 413h789v-174h-123v-1695h-182v1689h-220v-1689h-180v1005q0 10 -33 27q-51 16 -77 24q-109 39 -142 66q-141 106 -141 334z" />
<glyph unicode="&#xb8;" horiz-adv-x="684" d="M0 -334q76 10 154 25q80 14 79 63q0 35 -104 80q-14 4 -27 12q-2 18 -2 39q0 80 41 103h90q4 -61 27 -78q78 -51 115 -76q8 -6 14 -14q2 -35 2 -70q0 -168 -170 -176q-111 -4 -219 -4v96z" />
<glyph unicode="&#xb9;" horiz-adv-x="684" d="M0 1227v102q0 4 231 156q13 8 27 12h76v-749h-109v555l-188 -76h-37z" />
<glyph unicode="&#xba;" horiz-adv-x="747" d="M0 1006v260q0 47 51 114q68 92 154 117q92 6 182 0q49 -2 115 -51q104 -76 104 -143v-361q0 -20 -39 -65q-53 -59 -102 -91q-68 -39 -162 -38q-74 0 -137 26q-166 72 -166 232zM154 1122q0 -113 12 -155q31 -90 156 -90q20 0 65 14q63 18 64 63v336q0 63 -91 78 q-57 8 -116 0q-84 -25 -90 -141v-105z" />
<glyph unicode="&#xbb;" d="M0 76q23 53 51 104q104 180 154 271q29 49 28 79q0 20 -2 25l-231 426v12h137l301 -438q14 -20 15 -33q0 -6 -2 -6l-310 -440h-141zM399 76l240 452l-240 465h142l297 -438q14 -8 14 -20v-7l-315 -452h-138z" />
<glyph unicode="&#xbc;" horiz-adv-x="1742" d="M0 1227v102q0 4 231 156q13 8 27 12h76v-749h-109v555l-174 -76h-51zM150 -51l1089 1536l12 12h156l-1110 -1548h-147zM981 96v162q0 10 309 375q31 34 66 63h135v-471h96v-129h-96v-121h-156v121h-354zM1135 231h194v220q-68 -61 -129 -129q-55 -57 -65 -91z" />
<glyph unicode="&#xbd;" horiz-adv-x="1742" d="M0 1227v102q0 4 231 156q13 8 27 12h76v-749h-109v555l-188 -76h-37zM115 -51l1085 1536l12 12h156l-1110 -1548h-143zM913 -25q0 35 29 62l399 401q14 14 15 58q0 55 -53 98q-29 2 -58 2q-74 0 -110 -29q-37 -51 -64 -65h-29q-88 0 -88 45q0 51 90 123q38 30 144 53 q115 6 207 -14q143 -31 143 -193q0 -78 -41 -129q-29 -37 -102 -104q-96 -76 -144 -117q-47 -39 -51 -70h336v-121h-623z" />
<glyph unicode="&#xbe;" horiz-adv-x="1742" d="M0 903q0 53 57 53q29 0 84 -41q33 -27 52 -38q39 -27 90 -27q76 0 116 65q2 29 2 60q0 92 -53 108q-70 14 -104 27q-14 4 -15 33q0 31 54 69q43 31 90 54q2 18 2 37q0 80 -99 79q-41 0 -45 -2q-66 -51 -102 -63q-8 -4 -47 -4q-23 0 -45 4q-12 2 -12 33q0 53 77 108 q35 25 78 39h297q57 0 78 -78q12 -53 12 -84q0 -49 -51 -108q-37 -33 -51 -53q-2 0 -2 -7q0 -2 2 -6q27 -18 51 -39q63 -55 64 -90v-155q0 -49 -91 -103q-31 -18 -63 -26q-63 -12 -129 -13q-106 0 -168 27q-129 55 -129 141zM213 -51l1090 1536l14 12h153l-1105 -1548h-152z M1004 96q0 96 16 148q158 197 321 389q31 32 66 63h135v-471h84v-129h-84v-121h-156v121h-382zM1188 231h192v234q-47 -43 -90 -92q-92 -104 -102 -142z" />
<glyph unicode="&#xbf;" horiz-adv-x="1290" d="M0 -45q0 170 90 276q139 154 207 234q33 39 63 141q8 35 13 51q6 21 14 39h168q-4 -78 -14 -155q-10 -98 -64 -154q-123 -121 -180 -182q-119 -123 -119 -246q0 -244 266 -244q207 0 291 183q20 45 39 90l168 12v-25q0 -147 -90 -245q-90 -96 -129 -129q-49 -39 -78 -39 h-387q-45 0 -104 51q-74 68 -103 117q-51 92 -51 225zM387 915v156h154v-156h-154z" />
<glyph unicode="&#xc0;" horiz-adv-x="1406" d="M0 0l516 1407q19 53 39 63h211l551 -1380q27 -70 26 -90h-194l-14 12q-70 195 -142 387q-10 27 -12 27h-621l-12 -14q-70 -186 -143 -375q-14 -37 -25 -37h-180zM426 645h477l-246 672zM438 1845h240l96 -207v-43q-113 0 -129 19q-90 104 -180 207q-13 12 -27 24z" />
<glyph unicode="&#xc1;" horiz-adv-x="1406" d="M0 0l516 1407q19 53 39 63h211l563 -1433q14 -20 14 -37h-194l-14 12q-70 195 -142 387q-10 27 -12 27h-621l-12 -14q-70 -186 -143 -375q-14 -37 -25 -37h-180zM426 645h477l-246 672zM528 1587v12l117 234l12 12h234q-20 -18 -39 -39q-51 -61 -78 -90q-63 -68 -90 -90 q-47 -39 -156 -39z" />
<glyph unicode="&#xc2;" horiz-adv-x="1406" d="M0 0l516 1407q19 53 39 63h211l590 -1470h-207l-14 12q-70 195 -142 387q-10 27 -12 27h-621l-12 -14q-70 -186 -143 -375q-14 -37 -25 -37h-180zM348 1587v12q0 10 154 222q12 14 26 24h220q6 0 26 -24q51 -66 129 -168q27 -37 39 -66h-39q-68 0 -141 12q-14 12 -27 27 q-33 45 -51 66q-35 39 -45 39q-14 0 -45 -39q-35 -45 -66 -93zM426 645h477l-246 672z" />
<glyph unicode="&#xc3;" horiz-adv-x="1406" d="M0 0l516 1407q19 53 39 63h211l575 -1470h-192l-14 12q-70 195 -142 387q-10 27 -12 27h-621l-12 -14q-70 -186 -143 -375q-14 -37 -25 -37h-180zM313 1583q0 172 113 199q76 12 154 0q113 -39 168 -51q4 -2 20 -2q61 0 96 53h121q0 -182 -199 -183q-66 0 -102 15 q-109 39 -154 39q-31 0 -104 -54q-27 -16 -113 -16zM426 645h477l-246 672z" />
<glyph unicode="&#xc4;" horiz-adv-x="1406" d="M0 0l516 1407q19 53 39 63h211l582 -1470h-199l-14 12q-70 195 -142 387q-10 27 -12 27h-621l-12 -14q-70 -186 -143 -375q-14 -37 -25 -37h-180zM387 1599v156h154v-156h-154zM426 645h477l-246 672zM786 1599v156h156v-156h-156z" />
<glyph unicode="&#xc5;" horiz-adv-x="1406" d="M0 0l502 1407q2 4 2 29q0 29 -2 34q-20 51 -25 78q-2 6 -2 43q1 151 105 176h182q37 0 63 -90q14 -47 15 -69q0 -31 -15 -72q-27 -82 -26 -92v-25l542 -1419h-192l-14 12q-70 195 -142 387q-10 27 -12 27h-621l-12 -14q-70 -186 -143 -375q-14 -37 -25 -37h-180zM426 645 h477l-246 672zM553 1608q0 -98 53 -99h103q16 0 39 39q14 25 14 66q0 90 -39 90h-117q-53 -43 -53 -96z" />
<glyph unicode="&#xc6;" horiz-adv-x="2091" d="M0 0l709 1458l14 12h1200v-174h-711v-438h660v-180h-660v-504h750v-174h-963v387h-600l-206 -387h-193zM510 606h471v684h-129l-27 -24z" />
<glyph unicode="&#xc7;" horiz-adv-x="1523" d="M0 633v153v156q88 463 516 555h336q88 0 207 -102q55 -51 141 -144q66 -70 66 -149q0 -45 -105 -45q-33 0 -63 2q-23 16 -39 39q-41 61 -66 90t-63 63q-35 29 -117 52q-51 14 -149 14q-96 0 -148 -14q-313 -84 -323 -426v-160v-162q68 -401 471 -401q352 0 458 335 q20 2 39 3q43 0 90 -15q53 -14 54 -51q0 -94 -78 -195q-68 -86 -117 -129q-88 -78 -233 -114q-82 -23 -168 -39q-39 -29 -39 -45q0 -10 14 -19q61 -33 90 -51q66 -49 66 -123q0 -156 -170 -162q-121 -6 -244 -6v97q78 10 154 26q92 16 92 58q0 25 -15 32l-129 64v6v8 q14 82 15 90q0 35 -41 51q-70 25 -103 37q-84 37 -102 51q-51 39 -131 130q-158 182 -166 440z" />
<glyph unicode="&#xc8;" horiz-adv-x="1406" d="M0 0v1470h1044v-174h-851v-438h800v-180h-800v-504h890v-174h-1083zM309 1845h240l108 -246h-129q-8 0 -77 78q-74 82 -142 168z" />
<glyph unicode="&#xc9;" horiz-adv-x="1406" d="M0 0v1470h1044v-174h-851v-438h800v-180h-800v-504h890v-174h-1083zM399 1599l103 234l26 12h207q-10 -35 -117 -153q-84 -96 -153 -97q-33 0 -66 4z" />
<glyph unicode="&#xca;" horiz-adv-x="1406" d="M0 0v1470h1044v-174h-851v-438h800v-180h-800v-504h890v-174h-1083zM244 1599q53 148 182 246h207q8 0 63 -63q25 -29 78 -105q27 -37 51 -78h-168l-129 132h-6q-14 0 -96 -132h-182z" />
<glyph unicode="&#xcb;" horiz-adv-x="1406" d="M0 0v1470h1044v-174h-851v-438h800v-180h-800v-504h890v-174h-1083zM270 1599v156h156v-156h-156zM645 1599v156h154v-156h-154z" />
<glyph unicode="&#xcc;" horiz-adv-x="567" d="M0 1845h219q10 0 90 -168q27 -59 27 -78h-131q-6 0 -39 39q-84 103 -166 207zM129 0v1470h154v-1470h-154z" />
<glyph unicode="&#xcd;" horiz-adv-x="567" d="M-2 1599q0 18 27 78q76 160 90 168h219q-74 -98 -154 -192q-43 -53 -51 -54h-131zM51 0v1470h154v-1470h-154z" />
<glyph unicode="&#xce;" horiz-adv-x="567" d="M0 1599q27 119 166 246h221q10 0 64 -63q25 -29 77 -105q27 -37 52 -78h-168l-129 132h-7q-10 0 -32 -27q-41 -61 -64 -90q-10 -14 -14 -15h-166zM193 0v1470h155v-1470h-155z" />
<glyph unicode="&#xcf;" horiz-adv-x="567" d="M0 1599v156h154v-156h-154zM180 0v1470h154v-1470h-154zM373 1599v156h155v-156h-155z" />
<glyph unicode="&#xd0;" horiz-adv-x="1523" d="M0 664v129h147v677h7h800q74 0 144 -63q94 -88 141 -141q14 -18 39 -66q82 -166 90 -309q2 -16 2 -158q0 -152 -2 -178q-2 -45 -27 -129q-61 -215 -258 -375q-63 -51 -116 -51h-820v664h-147zM360 180h531q27 0 76 39q129 100 182 258q23 66 25 156q2 14 2 102 q0 160 -27 258q-29 100 -51 129q-33 39 -105 105q-72 63 -129 63h-504v-497h363v-129h-363v-484z" />
<glyph unicode="&#xd1;" horiz-adv-x="1523" d="M0 0v1470h193l749 -1110h19v1110h188v-1470h-203l-760 1112v-1112h-186zM266 1583q0 66 17 109q31 76 90 90q78 10 155 0q78 -27 117 -39q43 -14 72 -14q25 0 45 14q78 51 170 51q0 -195 -197 -195q-66 0 -102 15q-109 39 -156 39h-39q-41 -37 -65 -54q-27 -16 -107 -16z " />
<glyph unicode="&#xd2;" horiz-adv-x="1626" d="M0 768v162q18 276 283 465q92 65 233 102h336q23 0 115 -39q80 -33 143 -78q111 -80 168 -180q96 -174 102 -348q2 -18 2 -131q0 -111 -2 -127q-4 -106 -39 -182q-203 -438 -671 -439q-150 0 -244 27q-311 88 -389 399q-37 160 -37 369zM193 541q0 -254 284 -361 q72 -27 193 -26q305 0 452 258q66 115 66 276v125q-14 387 -363 490q-73 22 -245 14q-117 -20 -181 -78q-78 -72 -116 -117q-90 -104 -90 -219v-362zM465 1845h231q10 0 66 -114q39 -86 51 -132h-117q-8 0 -129 132q-43 51 -65 75q-17 21 -37 39z" />
<glyph unicode="&#xd3;" horiz-adv-x="1626" d="M0 768v162q18 276 283 465q92 65 233 102h336q23 0 115 -39q80 -33 143 -78q111 -80 168 -180q96 -176 102 -336q2 -18 2 -135q0 -119 -2 -135q-4 -106 -39 -182q-203 -438 -671 -439q-150 0 -244 27q-311 88 -389 399q-37 160 -37 369zM193 541q0 -254 284 -361 q72 -27 193 -26q305 0 452 258q66 115 66 276v125q-14 387 -363 490q-73 22 -245 14q-117 -20 -181 -78q-78 -72 -116 -117q-90 -104 -90 -219v-362zM555 1587q37 168 102 234l27 24h231q-27 -25 -51 -51q-41 -53 -65 -78q-63 -70 -115 -117q-16 -12 -78 -12h-51z" />
<glyph unicode="&#xd4;" horiz-adv-x="1626" d="M0 768v162q18 276 283 465q92 65 233 102h336q23 0 115 -39q80 -33 143 -78q111 -80 168 -180q96 -176 102 -336q2 -18 2 -135q0 -119 -2 -135q-4 -106 -39 -182q-203 -438 -671 -439q-150 0 -244 27q-311 88 -389 399q-37 160 -37 369zM193 541q0 -254 284 -361 q72 -27 193 -26q305 0 452 258q66 115 66 276v125q-14 387 -363 490q-73 22 -245 14q-117 -20 -181 -78q-78 -72 -116 -117q-90 -104 -90 -219v-362zM387 1587v12q0 14 141 207q16 23 39 39h219q6 0 27 -24q102 -127 141 -183q18 -23 27 -51h-39q-68 0 -143 12 q-12 12 -25 27q-35 45 -51 66q-35 39 -45 39q-14 0 -45 -39q-35 -45 -66 -93z" />
<glyph unicode="&#xd5;" horiz-adv-x="1626" d="M0 768v162q18 276 283 465q92 65 233 102h336q23 0 115 -39q80 -33 143 -78q111 -80 168 -180q96 -174 102 -348q2 -18 2 -131q0 -111 -2 -127q-4 -106 -39 -182q-203 -438 -671 -439q-150 0 -244 27q-311 88 -389 399q-37 160 -37 369zM193 541q0 -254 284 -361 q72 -27 193 -26q305 0 452 258q66 115 66 276v125q-14 387 -363 490q-73 22 -245 14q-117 -20 -181 -78q-78 -72 -116 -117q-90 -104 -90 -219v-362zM356 1583q0 66 17 109q31 76 92 90q76 12 153 0q113 -39 168 -51q4 -2 21 -2q61 0 96 53h119q0 -182 -197 -183 q-66 0 -102 15q-109 39 -156 39q-29 0 -102 -54q-27 -16 -109 -16z" />
<glyph unicode="&#xd6;" horiz-adv-x="1626" d="M0 768v162q18 276 283 465q92 65 233 102h336q23 0 115 -39q80 -33 143 -78q111 -80 168 -180q96 -176 102 -336q2 -18 2 -135q0 -119 -2 -135q-4 -106 -39 -182q-203 -438 -671 -439q-150 0 -244 27q-311 88 -389 399q-37 160 -37 369zM193 541q0 -254 284 -361 q72 -27 193 -26q305 0 452 258q66 115 66 276v125q-14 387 -363 490q-73 22 -245 14q-117 -20 -181 -78q-78 -72 -116 -117q-90 -104 -90 -219v-362zM426 1599v156h154v-156h-154zM799 1599v156h182v-156h-182z" />
<glyph unicode="&#xd7;" horiz-adv-x="1226" d="M-4 391l287 318v26q-111 115 -220 232q-35 39 -63 77l102 105h13l297 -272h39q121 119 245 233q47 43 52 39l110 -111l-264 -290q-14 -14 -14 -31v-8q113 -133 233 -244q41 -39 41 -47q0 -14 -2 -19l-104 -102h-13q-115 111 -233 219q-57 51 -70 51q-14 0 -45 -26 q-139 -119 -272 -244h-13z" />
<glyph unicode="&#xd8;" horiz-adv-x="1626" d="M0 0q0 8 12 25q61 86 129 168v26q-41 90 -78 180q-6 16 -12 39q-41 145 -41 291q0 154 41 303q96 360 414 438q109 29 237 29q244 0 447 -119h25q114 109 155 129q68 -16 68 -71q0 -14 -2 -19l-117 -153q-2 -2 -2 -6q0 -6 2 -9q35 -86 51 -129q31 -80 51 -180 q12 -57 15 -78v-174v-174q-27 -123 -92 -233q-180 -309 -568 -310q-143 0 -233 27q-88 27 -232 90h-12l-168 -153q-2 -2 -6 -3q-84 0 -84 66zM219 528q0 -100 78 -155l90 92l594 684q39 45 39 57q0 35 -66 72q-68 39 -90 39h-270q-123 -27 -207 -105q-82 -74 -104 -102 q-63 -86 -64 -168v-414zM399 250q0 -16 117 -70q59 -27 186 -26q156 0 252 51q115 63 168 155q18 33 52 105q27 55 26 63v363q0 20 -39 129q-19 51 -39 63l-102 -102l-594 -684q-27 -31 -27 -47z" />
<glyph unicode="&#xd9;" horiz-adv-x="1523" d="M0 297v1173h186v-1122q0 -10 58 -78q57 -68 116 -90q68 -27 213 -26q186 0 279 65q109 78 109 141v1110h188v-1097q0 -203 -182 -310q-147 -84 -258 -88q-18 -2 -148 -2q-131 0 -149 2q-29 0 -78 13q-115 27 -205 102q-129 104 -129 207zM334 1845h233l117 -246h-129 q-8 0 -78 78q-73 82 -143 168z" />
<glyph unicode="&#xda;" horiz-adv-x="1523" d="M0 297v1173h186v-1122q0 -10 58 -78q57 -68 116 -90q68 -27 213 -26q186 0 279 65q109 78 109 141v1110h188v-1097q0 -203 -182 -310q-147 -84 -258 -88q-18 -2 -148 -2q-131 0 -149 2q-29 0 -78 13q-115 27 -205 102q-129 104 -129 207zM426 1599q33 172 129 246h207 q-10 -35 -117 -153q-86 -96 -156 -97q-33 0 -63 4z" />
<glyph unicode="&#xdb;" horiz-adv-x="1523" d="M0 297v1173h186v-1122q0 -10 58 -78q57 -68 116 -90q68 -27 213 -26q186 0 279 65q109 78 109 141v1110l71 15h117v-1112q0 -203 -182 -310q-147 -84 -258 -88q-18 -2 -148 -2q-131 0 -149 2q-29 0 -78 13q-115 27 -205 102q-129 104 -129 207zM297 1599q51 148 180 246 h207l25 -12q6 -4 143 -180q27 -35 39 -66h-39h-39q-98 8 -104 12l-129 132h-13q-2 0 -39 -54q-27 -37 -51 -78h-180z" />
<glyph unicode="&#xdc;" horiz-adv-x="1523" d="M0 297v1173h186v-1122q0 -10 58 -78q57 -68 116 -90q68 -27 213 -26q186 0 279 65q109 78 109 141v1110h188v-1097q0 -203 -182 -310q-147 -84 -258 -88q-18 -2 -148 -2q-131 0 -149 2q-29 0 -78 13q-115 27 -205 102q-129 104 -129 207zM309 1599v156h156v-156h-156z M684 1599v156h168v-156h-168z" />
<glyph unicode="&#xdd;" horiz-adv-x="1406" d="M0 1470h215l447 -677l436 653q26 41 102 39h129v-27l-555 -801l-20 -24v-633h-193v618zM549 1587l108 234l27 24h219q-29 -49 -90 -114q-121 -129 -129 -132z" />
<glyph unicode="&#xde;" horiz-adv-x="1406" d="M0 0v1470h186v-276h666q18 0 78 -45q23 -18 63 -66q45 -49 78 -129q39 -94 39 -219q0 -225 -168 -375q-94 -84 -180 -84h-576v-276h-186zM193 465h542q117 0 168 153q14 41 15 117q0 76 -15 117q-51 154 -180 154h-530v-541z" />
<glyph unicode="&#xdf;" horiz-adv-x="1290" d="M0 0v1251q0 43 37 90q25 31 78 78q57 51 182 78q121 6 244 0q84 -4 155 -63q104 -90 105 -222q0 -27 -15 -90q-59 -129 -116 -258q-12 -31 -13 -51q0 -63 78 -129q123 -94 180 -143q117 -98 117 -226q0 -342 -342 -342q-170 0 -252 64q-129 104 -129 149q0 12 13 19 q96 53 116 53h13q117 -131 219 -131q182 0 182 143q0 86 -78 156q-115 84 -168 129q-131 109 -131 225q0 51 14 84q57 129 117 258q2 29 2 60q0 162 -190 161q-98 0 -148 -40q-96 -76 -96 -103v-1200h-174z" />
<glyph unicode="&#xe0;" d="M0 266q0 272 231 314l439 77q25 4 39 27q2 31 2 64q0 195 -228 194q-150 0 -264 -129q-59 -66 -69 -65q-92 0 -125 26v45q0 123 129 201q89 53 206 78h310q70 0 155 -78q47 -43 90 -105q10 -12 21 -24v-789l45 -114h-39h-39q-94 6 -104 12q-47 31 -51 90h-13 q-111 -59 -194 -90q-72 -27 -201 -27q-98 0 -147 15q-193 53 -193 278zM178 272q0 -113 92 -143q41 -14 129 -14q80 0 129 14q176 49 195 219q8 84 8 168h-22l-426 -90q-104 -23 -105 -154zM297 1470h225l129 -258l-149 15q-4 0 -25 24q-92 108 -180 219z" />
<glyph unicode="&#xe1;" d="M0 266q0 272 231 314l439 77q25 4 39 27q2 31 2 64q0 195 -228 194q-150 0 -264 -129q-59 -66 -69 -65q-92 0 -125 26v45q0 123 129 201q89 53 206 78h310q70 0 155 -78q47 -43 90 -105q10 -12 21 -24v-762q45 -121 45 -135v-6l-182 12l-51 90h-13q-111 -59 -194 -90 q-72 -27 -201 -27q-98 0 -147 15q-193 53 -193 278zM178 272q0 -113 92 -143q41 -14 129 -14q80 0 129 14q176 49 195 219q8 84 8 168h-22l-426 -90q-104 -23 -105 -154zM373 1227l104 219l25 24h207v-12q0 -12 -103 -129q-92 -102 -104 -102h-129z" />
<glyph unicode="&#xe2;" d="M0 266q0 272 231 314l439 77q25 4 39 27q2 31 2 64q0 195 -228 194q-150 0 -264 -129q-59 -66 -69 -65q-92 0 -125 26v45q0 123 129 201q89 53 206 78h310q70 0 155 -78q47 -43 90 -105q10 -12 21 -24v-762q45 -121 45 -135v-6l-182 12l-51 90h-13q-111 -59 -194 -90 q-72 -27 -201 -27q-98 0 -147 15q-193 53 -193 278zM178 272q0 -113 92 -143q41 -14 129 -14q80 0 129 14q176 49 195 219q8 84 8 168h-22l-426 -90q-104 -23 -105 -154zM180 1227q20 74 78 141q80 96 115 102h194q8 0 39 -36q61 -78 129 -168q14 -20 15 -39h-170 q-4 0 -103 129h-6q-12 0 -45 -39q-31 -37 -66 -90h-180z" />
<glyph unicode="&#xe3;" d="M0 266q0 272 231 314l439 77q25 4 39 27q2 31 2 64q0 195 -228 194q-150 0 -264 -129q-59 -66 -69 -65q-92 0 -125 26v45q0 123 129 201q89 53 206 78h310q70 0 155 -78q47 -43 90 -105q10 -12 21 -24v-789l45 -114h-39h-39q-94 6 -104 12q-47 31 -51 90h-13 q-111 -59 -194 -90q-72 -27 -201 -27q-98 0 -147 15q-193 53 -193 278zM150 1198q-1 164 108 209q63 10 129 0q111 -41 168 -51q10 -4 47 -4q74 0 94 55h119q0 -143 -119 -180q-41 -4 -84 -4q-72 0 -84 4q-94 39 -141 51q-8 2 -35 2q-20 0 -94 -53q-39 -29 -108 -29z M178 272q0 -113 92 -143q41 -14 129 -14q80 0 129 14q176 49 195 219q8 84 8 168h-22l-426 -90q-104 -23 -105 -154z" />
<glyph unicode="&#xe4;" d="M0 266q0 272 231 314l439 77q25 4 39 27q2 31 2 64q0 195 -228 194q-150 0 -264 -129q-59 -66 -69 -65q-92 0 -125 26v45q0 123 129 201q89 53 206 78h310q70 0 155 -78q47 -43 90 -105q10 -12 21 -24v-789l45 -114h-39h-39q-94 6 -104 12q-47 31 -51 90h-13 q-111 -59 -194 -90q-72 -27 -201 -27q-98 0 -147 15q-193 53 -193 278zM178 272q0 -113 92 -143q41 -14 129 -14q80 0 129 14q176 49 195 219q8 84 8 168h-22l-426 -90q-104 -23 -105 -154zM244 1227v153h155v-153h-155zM618 1227v153h156v-153h-156z" />
<glyph unicode="&#xe5;" d="M0 266q0 272 231 314l439 77q25 4 39 27q2 31 2 64q0 195 -228 194q-150 0 -264 -129q-59 -66 -69 -65q-92 0 -125 26v45q0 123 129 201q89 53 206 78h310q70 0 155 -78q47 -43 90 -105q10 -12 21 -24v-762q45 -121 45 -135v-6l-182 12l-51 90h-13q-111 -59 -194 -90 q-72 -27 -201 -27q-98 0 -147 15q-193 53 -193 278zM178 272q0 -113 92 -143q41 -14 129 -14q80 0 129 14q176 49 195 219q8 84 8 168h-22l-426 -90q-104 -23 -105 -154zM334 1384q0 136 104 179q84 4 168 0q63 -4 64 -39v-258q0 -25 -52 -39q-45 -2 -90 -2q-195 0 -194 159 zM412 1386q0 -84 98 -83q66 0 84 26v51q0 121 -129 105q-53 -43 -53 -99z" />
<glyph unicode="&#xe6;" horiz-adv-x="1859" d="M0 270q0 262 231 310q268 51 402 77q63 14 63 78q0 207 -225 207q-137 0 -227 -104q-33 -43 -51 -64q-12 -14 -27 -26q-141 12 -141 77q0 94 77 156q72 55 168 90q39 15 78 27h297q27 0 117 -54q90 -53 96 -53q10 0 19 2q184 104 333 105q311 0 428 -312q43 -111 43 -303 h-759q-10 -88 -7 -174q0 -8 15 -39q57 -143 270 -143q170 0 297 170l12 12h66q92 0 92 -37q0 -53 -68 -131q-68 -82 -129 -116q-92 -51 -245 -52q-199 0 -426 156h-13q-84 -53 -168 -104q-86 -49 -141 -50h-258q-131 0 -194 140q-25 63 -25 155zM178 285q0 -170 207 -170 q313 0 313 303q0 43 -2 84q-10 22 -26 14q-174 -37 -348 -78q-143 -35 -144 -153zM901 645h588q0 205 -199 285q-53 20 -155 12q-182 -14 -220 -180q-14 -70 -14 -117z" />
<glyph unicode="&#xe7;" horiz-adv-x="1058" d="M-2 567q0 78 2 156q4 43 63 154q27 49 117 129q64 57 193 92q166 8 272 -27q246 -82 246 -291q0 -45 -129 -45h-27q-92 207 -270 207q-78 0 -143 -27q-141 -55 -142 -192v-363q0 -156 168 -219q37 -14 117 -14q193 0 297 233h141q27 0 27 -24q0 -193 -182 -299 q-113 -63 -246 -88q-27 -12 -27 -39q0 -18 80 -64q63 -37 63 -65v-141q0 -47 -90 -78q-35 -12 -63 -13q-117 -6 -234 -6v97q78 10 156 26q78 14 78 58q0 37 -78 71q-53 23 -53 43v21q10 43 14 65v15q0 14 -14 24q-70 39 -103 62q-100 70 -141 141q-92 164 -92 401z" />
<glyph unicode="&#xe8;" d="M0 373v143v141q2 72 37 156q106 248 350 285q178 8 258 -15q279 -76 336 -387q16 -92 16 -213h-813q-10 -55 -4 -110q12 -154 207 -232q35 -14 123 -14q90 0 160 39q47 29 155 131h129q27 0 27 -33q0 -55 -39 -98q-70 -72 -143 -141q-74 -45 -181 -50q-14 -2 -116 -2 q-137 0 -244 39q-250 92 -258 361zM176 645h639q0 213 -197 285q-59 20 -192 12q-250 -55 -250 -297zM283 1470h227l129 -258l-150 15q-6 0 -38 39q-86 100 -168 204z" />
<glyph unicode="&#xe9;" d="M0 373v143v141q2 72 37 156q106 248 350 285q178 8 258 -15q256 -70 309 -284q12 -51 27 -115q16 -84 16 -201h-813q-10 -55 -4 -110q12 -154 207 -232q35 -14 123 -14q90 0 160 39q47 29 155 131h129q27 0 27 -33q0 -55 -39 -98q-70 -72 -143 -141q-74 -45 -181 -50 q-14 -2 -116 -2q-137 0 -244 39q-250 92 -258 361zM176 645h639q0 213 -197 285q-59 20 -192 12q-250 -55 -250 -297zM373 1227l104 219l25 24h211q0 -12 -29 -51q-35 -47 -51 -63q-63 -68 -117 -117q-31 -27 -98 -27q-51 0 -45 15z" />
<glyph unicode="&#xea;" d="M0 373v143v141q2 72 37 156q106 248 350 285q178 8 258 -15q279 -76 336 -387q16 -92 16 -213h-813q-10 -55 -4 -110q12 -154 207 -232q35 -14 123 -14q90 0 160 39q47 29 155 131h129q27 0 27 -33q0 -55 -39 -98q-70 -72 -143 -141q-74 -45 -181 -50q-14 -2 -116 -2 q-137 0 -244 39q-250 92 -258 361zM176 645h639q0 213 -197 285q-59 20 -192 12q-250 -55 -250 -297zM193 1227q20 74 77 141q82 96 117 102h193q8 0 38 -36q61 -78 130 -168q16 -20 16 -39h-170q-6 0 -105 129h-6q-10 0 -45 -39q-31 -37 -65 -90h-180z" />
<glyph unicode="&#xeb;" d="M0 373v143v141q2 72 37 156q106 248 350 285q178 8 258 -15q246 -68 322 -335q31 -102 30 -265h-813q-10 -55 -4 -110q12 -154 207 -232q35 -14 123 -14q90 0 160 39q47 29 155 131h129q27 0 27 -33q0 -55 -39 -98q-70 -72 -143 -141q-74 -45 -181 -50q-14 -2 -116 -2 q-137 0 -244 39q-250 92 -258 361zM176 645h639q0 213 -197 285q-59 20 -192 12q-250 -55 -250 -297zM231 1227v153h156v-153h-156zM606 1227v153h156v-153h-156z" />
<glyph unicode="&#xec;" horiz-adv-x="567" d="M0 1470h225l135 -258v-12q-154 12 -219 90q-73 88 -141 180zM141 0v1071h142v-1071h-142z" />
<glyph unicode="&#xed;" horiz-adv-x="567" d="M0 1227q0 143 129 243h205q-8 -31 -129 -167q-68 -76 -76 -76h-129zM51 0v1071h142v-1071h-142z" />
<glyph unicode="&#xee;" horiz-adv-x="567" d="M0 1227q51 145 180 243h207q6 0 39 -36q61 -78 129 -168q14 -20 14 -39h-170q-6 0 -26 24q-39 51 -76 105h-8q-12 0 -45 -39q-35 -43 -64 -90h-180zM205 0v1071h143v-1071h-143z" />
<glyph unicode="&#xef;" horiz-adv-x="567" d="M0 1227v153h154v-153h-154zM193 0v1071h141v-1071h-141zM373 1227v153h155v-153h-155z" />
<glyph unicode="&#xf0;" d="M0 373v141v143q0 41 12 91q74 324 432 323h45q70 -10 105 -12q4 -2 24 -2q14 0 27 2q-20 45 -51 90q-57 78 -78 78h-14l-219 -92h-29q-49 0 -49 39q0 35 53 65q78 41 115 64q27 18 26 32q1 10 -155 135h221q70 -53 139 -53q43 0 119 29q43 18 63 24q2 2 9 3q35 0 57 -93 l-156 -77v-5q0 -12 13 -32q72 -104 104 -156q70 -113 102 -195q78 -195 78 -387q0 -154 -39 -258q-80 -211 -258 -270q-84 -27 -231 -27q-59 0 -117 2q-98 27 -168 76q-174 121 -180 322zM180 322q0 -123 142 -181q68 -27 167 -26q92 0 129 14q150 55 168 193q14 94 15 194 q0 92 -15 180q-23 154 -206 219q-58 23 -154 15q-53 -6 -129 -53q-117 -70 -117 -181v-374z" />
<glyph unicode="&#xf1;" d="M0 0v1071h174v-104q51 43 109 77q63 42 116 54q96 4 195 0q70 -4 154 -78q104 -90 104 -156v-864h-174v799q0 31 -84 78q-70 41 -143 41q-123 0 -246 -132q-31 -35 -31 -38v-748h-174zM115 1198q0 168 129 209q53 8 104 0q119 -39 180 -51q6 -2 37 -2q63 0 105 53h121 q0 -182 -197 -182q-59 0 -66 2q-111 39 -168 51q-8 2 -34 2q-12 0 -68 -41q-59 -41 -143 -41z" />
<glyph unicode="&#xf2;" d="M0 309v426q0 63 76 168q47 61 129 129q49 39 168 66q178 8 260 -15q225 -61 309 -284q39 -104 39 -271q0 -135 -27 -231q-88 -324 -452 -324q-264 0 -412 168q-90 102 -90 168zM180 334q0 -92 129 -168q70 -39 174 -39q88 0 123 14q51 20 78 39q90 63 90 129v439 q0 70 -104 129q-127 75 -244 65q-45 -6 -129 -51q-117 -66 -117 -168v-389zM270 1470h226l131 -258l-150 15q-6 0 -39 39q-86 100 -168 204z" />
<glyph unicode="&#xf3;" d="M0 309v426q0 63 76 168q47 61 129 129q49 39 168 66q178 8 260 -15q225 -61 309 -284q39 -104 39 -271q0 -135 -27 -231q-88 -324 -452 -324q-264 0 -412 168q-90 102 -90 168zM180 334q0 -92 129 -168q70 -39 174 -39q88 0 123 14q51 20 78 39q90 63 90 129v439 q0 70 -104 129q-127 75 -244 65q-45 -6 -129 -51q-117 -66 -117 -168v-389zM360 1227l105 219l24 24h211q0 -14 -30 -51q-37 -47 -64 -78q-49 -53 -90 -90q-45 -39 -110 -39q-51 0 -46 15z" />
<glyph unicode="&#xf4;" d="M0 309v426q0 63 76 168q47 61 129 129q49 39 168 66q178 8 260 -15q225 -61 309 -284q39 -104 39 -250q0 -156 -27 -252q-88 -324 -452 -324q-264 0 -412 168q-90 102 -90 168zM180 334q0 -92 129 -168q70 -39 174 -39q88 0 123 14q51 20 78 39q90 63 90 129v439 q0 70 -104 129q-127 75 -244 65q-45 -6 -129 -51q-117 -66 -117 -168v-389zM193 1227q20 74 77 141q82 96 117 102h193q8 0 38 -36q61 -78 130 -168q16 -20 16 -39h-170q-2 0 -14 12q-33 43 -52 64q-25 29 -51 53q-57 -47 -104 -129h-180z" />
<glyph unicode="&#xf5;" d="M0 309v426q0 63 76 168q47 61 129 129q49 39 168 66q178 8 260 -15q225 -61 309 -284q39 -104 39 -256q0 -150 -27 -246q-88 -324 -452 -324q-264 0 -412 168q-90 102 -90 168zM152 1198q-1 148 118 209q63 10 129 0q111 -41 168 -51q10 -4 47 -4q76 0 95 55h118 q0 -139 -118 -180q-41 -4 -84 -4q-70 0 -84 4q-92 39 -142 51q-8 2 -34 2q-18 0 -95 -53q-41 -29 -118 -29zM180 334q0 -92 129 -168q70 -39 174 -39q88 0 123 14q51 20 78 39q90 63 90 129v439q0 70 -104 129q-127 75 -244 65q-45 -6 -129 -51q-117 -66 -117 -168v-389z " />
<glyph unicode="&#xf6;" d="M0 309v426q0 63 76 168q47 61 129 129q49 39 168 66q178 8 260 -15q225 -61 309 -284q39 -104 39 -271q0 -135 -27 -231q-88 -324 -452 -324q-264 0 -412 168q-90 102 -90 168zM180 334q0 -92 129 -168q70 -39 174 -39q88 0 123 14q51 20 78 39q90 63 90 129v439 q0 70 -104 129q-127 75 -244 65q-45 -6 -129 -51q-117 -66 -117 -168v-389zM231 1227v153h156v-153h-156zM606 1227v153h156v-153h-156z" />
<glyph unicode="&#xf7;" horiz-adv-x="1161" d="M0 645v168h954v-168h-954zM387 334v155h154v-155h-154zM387 967v155h154v-155h-154z" />
<glyph unicode="&#xf8;" horiz-adv-x="1290" d="M0 514v131q2 59 25 141q88 311 452 312q84 0 141 -15q94 -29 144 -39h20h17l104 105q78 -41 78 -72v-6l-78 -117q-2 -4 -2 -22q0 -12 41 -119q29 -76 39 -129q14 -78 14 -188q0 -119 -14 -174q-68 -266 -324 -334q-53 -14 -184 -15q-90 0 -100 2q-94 25 -142 37h-12 q-33 0 -129 -88q-6 -2 -14 -2q-66 0 -66 60q0 4 2 6q27 33 39 49q27 45 27 72l-53 149q-6 16 -13 51q-12 70 -12 205zM180 373q0 -59 51 -90l414 542q14 18 14 39q0 35 -79 66q-56 20 -142 12q-113 -14 -194 -129q-63 -90 -64 -143v-297zM322 178q0 -35 51 -49q45 -2 92 -2 q291 0 334 246q14 76 14 143q0 59 -14 141q-2 16 -13 52q-15 63 -38 53l-414 -543q-12 -18 -12 -41z" />
<glyph unicode="&#xf9;" d="M0 166v905h174v-840q0 -6 70 -65q31 -25 65 -37q39 -2 78 -2q162 0 270 156q10 14 21 26v762h174v-1071h-174v102q-193 -129 -356 -129q-111 0 -207 52q-115 66 -115 141zM166 1470h227l129 -258l-149 15q-6 0 -39 39q-84 100 -168 204z" />
<glyph unicode="&#xfa;" d="M0 166v905h174v-840q0 -6 70 -65q31 -25 65 -37q39 -2 78 -2q162 0 270 156q10 14 21 26v762l147 12h27v-1083h-174v102q-193 -129 -356 -129q-111 0 -207 52q-115 66 -115 141zM322 1227q43 96 90 192q19 37 39 51h211q0 -12 -29 -51q-37 -47 -53 -63q-61 -68 -115 -117 q-31 -27 -92 -27q-37 0 -51 15z" />
<glyph unicode="&#xfb;" d="M0 166v905h174v-840q0 -6 70 -65q31 -25 65 -37q39 -2 78 -2q162 0 270 156q10 14 21 26v762l160 12h14v-1083h-174v102q-193 -129 -356 -129q-111 0 -207 52q-115 66 -115 141zM141 1227q43 102 90 153q76 86 103 90h194q10 0 52 -51q27 -33 116 -153q27 -37 27 -47v-7 l-182 15l-103 129h-6q-14 0 -45 -39q-35 -43 -65 -90h-181z" />
<glyph unicode="&#xfc;" d="M0 166v905h174v-840q0 -6 70 -65q31 -25 65 -37q39 -2 78 -2q162 0 270 156q10 14 21 26v762l174 12v-1083h-174v102q-193 -129 -356 -129q-111 0 -207 52q-115 66 -115 141zM129 1227v153h154v-153h-154zM502 1227v153h155v-153h-155z" />
<glyph unicode="&#xfd;" horiz-adv-x="1058" d="M0 1044v27h166l285 -827h14l287 827h190l-440 -1237q-96 -272 -336 -272h-90q-43 33 -43 162h186q4 0 51 57q14 18 27 39q53 100 53 157q0 37 -2 48zM360 1227l105 219l24 24h211q0 -12 -30 -51q-33 -45 -52 -63q-53 -59 -102 -105q-45 -39 -110 -39q-51 0 -46 15z" />
<glyph unicode="&#xfe;" d="M0 -412v1882h174v-464q74 35 148 65q66 27 155 27q293 0 414 -299q39 -98 39 -236v-112q-4 -74 -27 -142q-113 -336 -432 -336q-98 0 -162 27q-117 47 -135 47v-459h-174zM166 322q0 -18 53 -78q104 -117 232 -117q190 0 272 195q27 63 27 219q0 150 -27 221 q-82 215 -311 192q-61 -14 -90 -39q-43 -37 -117 -116q-39 -41 -39 -76v-401z" />
<glyph unicode="&#xff;" horiz-adv-x="1058" d="M0 1044v27h166l285 -827h14l287 827h190l-440 -1237q-96 -272 -336 -272h-90q-43 33 -43 162h186q4 0 51 57q14 18 27 39q53 100 53 157q0 37 -2 48zM193 1227v153h155v-153h-155zM567 1227v153h156v-153h-156z" />
<glyph unicode="&#x152;" horiz-adv-x="2091" d="M0 594v139q0 244 51 402q100 301 387 362h297q23 0 64 -27q57 -35 78 -51q63 -49 122 -102v153h834v-174h-621v-438h570v-180h-570v-504h660v-174h-873v141q-16 -2 -32 -12q-59 -53 -90 -78q-90 -74 -154 -76q-20 -2 -131 -2q-410 0 -541 349q-43 115 -51 272zM193 541 q14 -106 51 -168q139 -219 356 -219q279 0 367 297q25 80 26 129q2 18 2 141q0 125 -2 143q-2 63 -26 142q-98 336 -465 311q-229 -68 -283 -285q-25 -94 -26 -168v-162v-161z" />
<glyph unicode="&#x153;" horiz-adv-x="1974" d="M0 309v180v181q2 74 25 129q102 246 348 299q256 25 504 -168q6 -2 14 -2q12 0 51 26q113 80 168 105q94 39 193 39q123 0 245 -54q223 -94 234 -321q4 -121 4 -240h-766q-14 0 -14 -84q0 -176 155 -245q61 -27 146 -27q172 0 319 182h66q78 0 90 -12q2 -20 2 -39 q0 -59 -68 -143q-12 -16 -78 -64q-39 -29 -63 -39q-106 -39 -238 -39q-225 0 -446 168q-221 -168 -434 -168q-100 0 -148 15q-258 76 -309 321zM180 373q0 -102 129 -207q49 -39 172 -39q254 0 293 207q12 74 12 194q0 121 -12 195q-29 156 -180 207q-64 20 -156 12 q-135 -18 -207 -143q-51 -90 -51 -142v-284zM991 645h617q0 225 -201 285q-72 18 -168 12q-248 -72 -248 -297z" />
<glyph unicode="&#x178;" horiz-adv-x="1406" d="M0 1470h215l447 -677l452 677l137 15h80q0 -18 -14 -39l-563 -813v-633h-193v618l-20 27zM399 1599v156h156v-156h-156zM774 1599v156h168v-156h-168z" />
<glyph unicode="&#x2c6;" horiz-adv-x="684" d="M0 1227q51 145 180 243h207q6 0 39 -36q121 -150 154 -207h-181q-2 0 -26 24q-39 45 -76 90q-8 2 -14 2q-16 0 -52 -40q-25 -35 -38 -52q-20 -25 -27 -24h-166z" />
<glyph unicode="&#x2dc;" horiz-adv-x="684" d="M-2 1247q0 160 117 199q51 8 104 0q119 -39 180 -51q10 -4 41 -4q33 0 37 4q39 43 64 51q61 16 118 16q0 -53 -14 -94q-33 -88 -90 -102q-43 -4 -84 -4q-72 0 -84 4q-113 39 -168 51q-8 2 -35 2t-30 -2q-29 -45 -52 -51q-55 -18 -104 -19z" />
<glyph unicode="&#x2000;" horiz-adv-x="936" />
<glyph unicode="&#x2001;" horiz-adv-x="1873" />
<glyph unicode="&#x2002;" horiz-adv-x="936" />
<glyph unicode="&#x2003;" horiz-adv-x="1873" />
<glyph unicode="&#x2004;" horiz-adv-x="624" />
<glyph unicode="&#x2005;" horiz-adv-x="468" />
<glyph unicode="&#x2006;" horiz-adv-x="312" />
<glyph unicode="&#x2007;" horiz-adv-x="312" />
<glyph unicode="&#x2008;" horiz-adv-x="234" />
<glyph unicode="&#x2009;" horiz-adv-x="374" />
<glyph unicode="&#x200a;" horiz-adv-x="104" />
<glyph unicode="&#x2010;" horiz-adv-x="684" d="M0 438v142h516v-142h-516z" />
<glyph unicode="&#x2011;" horiz-adv-x="684" d="M0 438v142h516v-142h-516z" />
<glyph unicode="&#x2012;" horiz-adv-x="684" d="M0 438v142h516v-142h-516z" />
<glyph unicode="&#x2013;" d="M0 465v102h1135v-102h-1135z" />
<glyph unicode="&#x2014;" horiz-adv-x="2091" d="M0 465v102h2052v-102h-2052z" />
<glyph unicode="&#x2018;" horiz-adv-x="464" d="M0 1032v336q0 82 115 117q66 16 65 -53v-13q-37 -33 -51 -51q-29 -37 -29 -88q0 -100 54 -92v-156h-154z" />
<glyph unicode="&#x2019;" horiz-adv-x="464" d="M0 1044v15q78 84 78 141q0 98 -53 90v180h155v-335q0 -8 -26 -37q-68 -80 -117 -80q-37 0 -37 26z" />
<glyph unicode="&#x201a;" horiz-adv-x="464" d="M0 -270q0 8 37 65q39 51 39 64l-4 135h-47v160h155v-320q0 -20 -39 -65q-57 -66 -94 -66q-47 0 -47 27z" />
<glyph unicode="&#x201c;" horiz-adv-x="684" d="M0 1044v351q0 51 102 102q53 27 54 -45q0 -10 -27 -57q-29 -49 -29 -95q0 -109 54 -100v-156h-154zM309 1044v324q1 92 142 141q14 -2 14 -47v-28q-29 -43 -39 -66q-14 -31 -14 -84q0 -66 53 -84v-156h-156z" />
<glyph unicode="&#x201d;" horiz-adv-x="684" d="M0 1071v12q78 86 78 142q0 98 -53 92v180h155v-323q0 -18 -26 -52q-63 -82 -117 -90q-37 -6 -37 39zM307 1071q0 6 2 12q76 82 78 105l-6 123h-47v186h155v-336q0 -25 -102 -117h-33q-47 0 -47 27z" />
<glyph unicode="&#x201e;" horiz-adv-x="684" d="M0 -270q0 8 37 65q39 51 39 64l-4 135h-47v160h155v-320q0 -18 -51 -78q-47 -53 -92 -53q-37 0 -37 27zM309 -258q78 84 78 104v148h-53v160h155v-334q0 -10 -12 -25q-80 -92 -123 -92q-31 0 -45 39z" />
<glyph unicode="&#x2022;" horiz-adv-x="722" d="M0 717q0 207 193 250q66 6 141 -13q131 -33 131 -116v-258q0 -59 -117 -103q-37 -14 -110 -14q-238 0 -238 254z" />
<glyph unicode="&#x2026;" horiz-adv-x="2091" d="M0 0v154h154v-154h-154zM657 0v154h181v-154h-181zM1341 0v154h156v-154h-156z" />
<glyph unicode="&#x202f;" horiz-adv-x="374" />
<glyph unicode="&#x2039;" horiz-adv-x="684" d="M0 528q0 6 12 27q248 389 258 399l39 39h131q0 -14 -28 -63q-104 -182 -154 -273q-35 -63 -65 -129v-6q0 -8 12 -33q139 -242 207 -360q14 -27 26 -53h-147l-279 426q-12 20 -12 26z" />
<glyph unicode="&#x203a;" horiz-adv-x="684" d="M0 76l231 426v53l-231 426v12h137l289 -426v-65l-285 -426h-141z" />
<glyph unicode="&#x205f;" horiz-adv-x="468" />
<glyph unicode="&#x2122;" horiz-adv-x="2091" d="M0 1335v135h645v-135h-239v-690h-142v690h-264zM813 645v825h184l220 -645l221 645h188v-825h-110v645l-238 -645h-121l-235 633v-633h-109z" />
<glyph unicode="&#x25fc;" horiz-adv-x="1075" d="M0 0v1075h1075v-1075h-1075z" />
</font>
</defs>
</svg>
